<?xml version="1.0" encoding="utf-8"?>
<svg viewBox="110.044 97.12 250.951 89.795" xmlns="http://www.w3.org/2000/svg">
  <path d="M 141.41991424560547 98.16480102539063 L 141.41991424560547 134.71499633789062 L 136.19481658935547 134.71499633789062 L 136.19481658935547 119.06519165039063 L 115.26893768310546 119.06519165039063 L 115.26893768310546 134.71499633789062 L 110.04384002685546 134.71499633789062 L 110.04384002685546 98.16480102539063 L 115.26893768310546 98.16480102539063 L 115.26893768310546 113.84009399414063 L 136.19481658935547 113.84009399414063 L 136.19481658935547 98.16480102539063 Z M 156.56014099121094 107.56997680664062 L 156.56014099121094 134.71499633789062 L 151.53894958496093 134.71499633789062 L 151.53894958496093 107.56997680664062 Z M 151.28406677246093 97.11978149414062 L 156.81502380371094 97.11978149414062 L 156.81502380371094 102.34487915039062 L 151.28406677246093 102.34487915039062 Z M 169.86737976074218 142.48892211914062 L 166.17157897949218 142.48892211914062 L 169.9183563232422 134.71499633789062 L 166.17157897949218 134.71499633789062 L 166.17157897949218 127.09400024414063 L 173.79257507324218 127.09400024414063 L 173.79257507324218 134.71499633789062 Z M 205.54393920898437 98.16480102539063 L 205.54393920898437 134.71499633789062 L 200.31884155273437 134.71499633789062 L 200.31884155273437 98.16480102539063 Z M 232.05909118652343 122.86294555664062 Q 232.05909118652343 121.81792602539062 232.45415954589845 120.91309204101563 Q 232.84922790527344 120.00825805664063 233.52466735839843 119.32007446289063 Q 234.20010681152343 118.63189086914062 235.11768493652343 118.23682250976563 Q 236.03526306152344 117.84175415039063 237.05479431152344 117.84175415039063 L 250.00284118652343 117.84175415039063 L 250.00284118652343 112.59116821289062 L 233.61387634277344 112.59116821289062 L 233.61387634277344 107.56997680664062 L 250.00284118652343 107.56997680664062 Q 251.04786071777343 107.56997680664062 251.96543884277344 107.96504516601563 Q 252.88301696777344 108.36011352539063 253.55845642089844 109.03555297851562 Q 254.23389587402343 109.71099243164062 254.62896423339845 110.62857055664062 Q 255.02403259277344 111.54614868164063 255.02403259277344 112.59116821289062 L 255.02403259277344 134.71499633789062 L 250.00284118652343 134.71499633789062 L 250.00284118652343 130.12710571289062 Q 249.92637634277344 131.07017211914064 249.49307556152343 131.91128540039062 Q 249.05977478027344 132.7523986816406 248.38433532714845 133.37686157226562 Q 247.70889587402343 134.00132446289064 246.84229431152343 134.35816040039063 Q 245.97569274902344 134.71499633789062 245.00713806152345 134.71499633789062 L 237.05479431152344 134.71499633789062 Q 236.03526306152344 134.71499633789062 235.11768493652343 134.31992797851564 Q 234.20010681152343 133.92485961914062 233.52466735839843 133.24942016601562 Q 232.84922790527344 132.57398071289063 232.45415954589845 131.65640258789062 Q 232.05909118652343 130.73882446289062 232.05909118652343 129.6938049316406 Z M 237.05479431152344 129.6938049316406 L 250.00284118652343 129.6938049316406 L 250.00284118652343 122.86294555664062 L 237.05479431152344 122.86294555664062 Z M 285.8961975097656 112.59116821289062 L 285.8961975097656 134.71499633789062 L 280.8750061035156 134.71499633789062 L 280.8750061035156 112.59116821289062 L 269.3797912597656 112.59116821289062 L 269.3797912597656 134.71499633789062 L 264.38408813476565 134.71499633789062 L 264.38408813476565 107.56997680664062 L 269.3797912597656 107.56997680664062 L 269.3797912597656 112.36177368164063 Q 269.43076782226564 111.36773071289062 269.8385803222656 110.48838500976562 Q 270.24639282226565 109.60903930664062 270.9218322753906 108.95908813476562 Q 271.59727172851564 108.30913696289062 272.48936157226564 107.93955688476562 Q 273.38145141601564 107.56997680664062 274.40098266601564 107.56997680664062 L 280.8750061035156 107.56997680664062 Q 281.8690490722656 107.56997680664062 282.7611389160156 107.93955688476562 Q 283.6532287597656 108.30913696289062 284.34141235351564 108.95908813476562 Q 285.02959594726565 109.60903930664062 285.4501525878906 110.48838500976562 Q 285.87070922851564 111.36773071289062 285.8961975097656 112.36177368164063 Q 285.9471740722656 111.36773071289062 286.3422424316406 110.48838500976562 Q 286.7373107910156 109.60903930664062 287.4127502441406 108.95908813476562 Q 288.08818969726565 108.30913696289062 288.98027954101565 107.93955688476562 Q 289.87236938476565 107.56997680664062 290.89190063476565 107.56997680664062 L 297.3659240722656 107.56997680664062 Q 298.41094360351565 107.56997680664062 299.3285217285156 107.96504516601563 Q 300.2460998535156 108.36011352539063 300.9215393066406 109.03555297851562 Q 301.59697875976565 109.71099243164062 301.99204711914064 110.62857055664062 Q 302.3871154785156 111.54614868164063 302.3871154785156 112.59116821289062 L 302.3871154785156 134.71499633789062 L 297.3659240722656 134.71499633789062 L 297.3659240722656 112.59116821289062 Z" style="white-space: pre;"/>
  <path d="M 115.26893768310546 186.9149932861328 L 110.04384002685546 186.9149932861328 L 110.04384002685546 150.36479797363282 L 115.26893768310546 150.36479797363282 L 137.23983612060547 178.7077667236328 L 137.23983612060547 150.36479797363282 L 142.46493377685547 150.36479797363282 L 142.46493377685547 186.9149932861328 L 137.23983612060547 186.9149932861328 L 115.26893768310546 158.5720245361328 Z M 157.61014404296876 159.7699737548828 L 157.61014404296876 186.9149932861328 L 152.58895263671874 186.9149932861328 L 152.58895263671874 159.7699737548828 Z M 152.33406982421874 149.3197784423828 L 157.86502685546876 149.3197784423828 L 157.86502685546876 154.5448760986328 L 152.33406982421874 154.5448760986328 Z M 167.22156677246093 164.79116516113282 Q 167.22156677246093 163.74614562988282 167.61663513183595 162.8285675048828 Q 168.01170349121094 161.9109893798828 168.68714294433593 161.2355499267578 Q 169.36258239746093 160.56011047363282 170.28016052246093 160.1650421142578 Q 171.19773864746094 159.7699737548828 172.21726989746094 159.7699737548828 L 186.21033630371093 159.7699737548828 L 186.21033630371093 149.3197784423828 L 191.23152770996094 149.3197784423828 L 191.23152770996094 186.9149932861328 L 186.21033630371093 186.9149932861328 L 186.21033630371093 182.3271026611328 Q 186.13387145996094 183.27016906738282 185.70057067871093 184.1112823486328 Q 185.26726989746095 184.9523956298828 184.59183044433593 185.5768585205078 Q 183.91639099121093 186.20132141113282 183.04978942871094 186.55815734863282 Q 182.18318786621094 186.9149932861328 181.21463317871093 186.9149932861328 L 172.21726989746094 186.9149932861328 Q 171.19773864746094 186.9149932861328 170.28016052246093 186.51992492675782 Q 169.36258239746093 186.1248565673828 168.68714294433593 185.4494171142578 Q 168.01170349121094 184.77397766113282 167.61663513183595 183.8563995361328 Q 167.22156677246093 182.9388214111328 167.22156677246093 181.8938018798828 Z M 172.21726989746094 181.8938018798828 L 186.21033630371093 181.8938018798828 L 186.21033630371093 164.79116516113282 L 172.21726989746094 164.79116516113282 Z M 224.59403076171876 186.9149932861328 L 219.57283935546874 186.9149932861328 L 219.57283935546874 164.79116516113282 L 205.57977294921875 164.79116516113282 L 205.57977294921875 186.9149932861328 L 200.58406982421874 186.9149932861328 L 200.58406982421874 149.3197784423828 L 205.57977294921875 149.3197784423828 L 205.57977294921875 164.5617706298828 Q 205.63074951171876 163.5677276611328 206.03856201171874 162.68838195800782 Q 206.44637451171874 161.8090362548828 207.12181396484374 161.15908508300782 Q 207.79725341796876 160.5091339111328 208.68934326171876 160.13955383300782 Q 209.58143310546876 159.7699737548828 210.60096435546876 159.7699737548828 L 219.57283935546874 159.7699737548828 Q 220.61785888671875 159.7699737548828 221.53543701171876 160.1650421142578 Q 222.45301513671876 160.56011047363282 223.12845458984376 161.2355499267578 Q 223.80389404296875 161.9109893798828 224.19896240234374 162.8285675048828 Q 224.59403076171876 163.74614562988282 224.59403076171876 164.79116516113282 Z M 239.23515930175782 159.7699737548828 L 239.23515930175782 186.9149932861328 L 234.2139678955078 186.9149932861328 L 234.2139678955078 159.7699737548828 Z M 233.9590850830078 149.3197784423828 L 239.49004211425782 149.3197784423828 L 239.49004211425782 154.5448760986328 L 233.9590850830078 154.5448760986328 Z M 265.235546875 181.8938018798828 L 265.235546875 175.59819641113282 L 253.33251953125 175.59819641113282 Q 252.2875 175.59819641113282 251.369921875 175.2031280517578 Q 250.45234375 174.8080596923828 249.776904296875 174.13262023925782 Q 249.10146484375 173.45718078613282 248.706396484375 172.53960266113282 Q 248.311328125 171.6220245361328 248.311328125 170.5770050048828 L 248.311328125 164.79116516113282 Q 248.311328125 163.74614562988282 248.706396484375 162.8285675048828 Q 249.10146484375 161.9109893798828 249.776904296875 161.2355499267578 Q 250.45234375 160.56011047363282 251.369921875 160.1650421142578 Q 252.2875 159.7699737548828 253.33251953125 159.7699737548828 L 269.21171875 159.7699737548828 L 269.21171875 164.79116516113282 L 253.33251953125 164.79116516113282 L 253.33251953125 170.5770050048828 L 265.235546875 170.5770050048828 Q 266.28056640625 170.5770050048828 267.185400390625 170.97207336425782 Q 268.090234375 171.3671417236328 268.77841796875 172.0425811767578 Q 269.4666015625 172.7180206298828 269.861669921875 173.6355987548828 Q 270.25673828125 174.5531768798828 270.25673828125 175.59819641113282 L 270.25673828125 181.8938018798828 Q 270.25673828125 182.9388214111328 269.861669921875 183.8563995361328 Q 269.4666015625 184.77397766113282 268.77841796875 185.4494171142578 Q 268.090234375 186.1248565673828 267.185400390625 186.51992492675782 Q 266.28056640625 186.9149932861328 265.235546875 186.9149932861328 L 248.311328125 186.9149932861328 L 248.311328125 181.8938018798828 Z M 303.09406127929685 186.9149932861328 L 298.0728698730469 186.9149932861328 L 298.0728698730469 164.79116516113282 L 284.0798034667969 164.79116516113282 L 284.0798034667969 186.9149932861328 L 279.0841003417969 186.9149932861328 L 279.0841003417969 149.3197784423828 L 284.0798034667969 149.3197784423828 L 284.0798034667969 164.5617706298828 Q 284.1307800292969 163.5677276611328 284.53859252929686 162.68838195800782 Q 284.9464050292969 161.8090362548828 285.62184448242186 161.15908508300782 Q 286.2972839355469 160.5091339111328 287.1893737792969 160.13955383300782 Q 288.0814636230469 159.7699737548828 289.1009948730469 159.7699737548828 L 298.0728698730469 159.7699737548828 Q 299.1178894042969 159.7699737548828 300.03546752929685 160.1650421142578 Q 300.9530456542969 160.56011047363282 301.62848510742185 161.2355499267578 Q 302.3039245605469 161.9109893798828 302.69899291992186 162.8285675048828 Q 303.09406127929685 163.74614562988282 303.09406127929685 164.79116516113282 Z M 348.19981689453124 181.6898956298828 Q 351.8446411132812 181.6898956298828 353.80723876953124 179.7272979736328 Q 355.76983642578125 177.76470031738282 355.76983642578125 174.1198760986328 L 355.76983642578125 163.1599151611328 Q 355.76983642578125 161.3757354736328 355.26007080078125 159.9738800048828 Q 354.75030517578125 158.5720245361328 353.7690063476563 157.59072570800782 Q 352.78770751953124 156.60942687988282 351.38585205078124 156.09966125488282 Q 349.98399658203124 155.58989562988282 348.19981689453124 155.58989562988282 L 334.8439575195313 155.58989562988282 L 334.8439575195313 181.6898956298828 Z M 329.6188598632813 186.9149932861328 L 329.6188598632813 150.36479797363282 L 348.19981689453124 150.36479797363282 Q 351.13096923828124 150.36479797363282 353.48863525390624 151.2696319580078 Q 355.84630126953124 152.17446594238282 357.5157836914062 153.8439483642578 Q 359.1852661132813 155.5134307861328 360.09010009765626 157.88384094238282 Q 360.99493408203125 160.2542510986328 360.99493408203125 163.1599151611328 L 360.99493408203125 174.1198760986328 Q 360.99493408203125 177.02554016113282 360.09010009765626 179.3959503173828 Q 359.1852661132813 181.7663604736328 357.5157836914062 183.43584289550782 Q 355.84630126953124 185.1053253173828 353.48863525390624 186.01015930175782 Q 351.13096923828124 186.9149932861328 348.19981689453124 186.9149932861328 Z" style="white-space: pre;"/>
</svg>