<svg width="744" height="452" viewBox="0 0 744 452" fill="none" xmlns="http://www.w3.org/2000/svg">
<g id="Frame 1">
<g id="Group 2">
<path id="flag" d="M493.247 37.9881C492.406 34.6843 489.667 32.2125 486.812 30.3499C483.956 28.4872 480.813 26.9902 478.375 24.6071C475.937 22.2241 474.297 18.6005 475.429 15.3845C476.805 11.476 481.389 9.91408 485.397 8.86031C448.716 4.91715 411.858 2.86091 374.967 2.69973C374.135 1.57281 372.969 0.73737 371.635 0.312748C370.301 -0.111875 368.866 -0.103969 367.537 0.335346C366.207 0.774661 365.051 1.62291 364.232 2.75893C363.413 3.89495 362.974 5.26061 362.978 6.66088V125.225H376.3V52.393C407.943 52.4697 439.585 52.5463 471.228 52.6229C476.351 52.6353 481.682 52.6027 486.288 50.3589C490.895 48.1153 494.513 42.953 493.247 37.9881Z" fill="#CCCCCC"/>
</g>
<g id="Group 1">
<path id="Vector" d="M566.801 250.449V210.484H597.441C602.865 210.484 608.235 209.416 613.245 207.34C618.256 205.265 622.808 202.223 626.643 198.388C630.478 194.553 633.52 190.001 635.595 184.99C637.671 179.98 638.739 174.61 638.739 169.187V169.186H405.608C405.608 164.24 407.573 159.496 411.07 155.999C414.568 152.501 419.312 150.536 424.258 150.536H586.784V145.9C586.784 130.067 575.823 117.232 562.303 117.232H359.748C328.551 117.232 300.048 137.326 285.346 169.186H252.727C249.959 169.186 247.3 170.263 245.312 172.189L224.684 192.172C223.16 193.649 222.111 195.547 221.672 197.623C221.234 199.7 221.425 201.86 222.221 203.827C223.018 205.794 224.384 207.478 226.144 208.664C227.903 209.85 229.977 210.484 232.1 210.484H257.736V250.449H139.962C138.457 250.449 136.969 250.768 135.596 251.385C134.223 252.001 132.996 252.901 131.996 254.026L108.313 280.67C106.948 282.205 106.056 284.103 105.745 286.133C105.433 288.164 105.715 290.242 106.557 292.116C107.398 293.99 108.764 295.581 110.489 296.698C112.214 297.814 114.224 298.408 116.279 298.408H189.525C191.332 298.408 193.109 298.867 194.689 299.743C196.27 300.618 197.602 301.882 198.56 303.414L211.413 323.965C212.385 325.519 212.94 327.297 213.024 329.128C213.108 330.959 212.718 332.781 211.892 334.417C211.066 336.054 209.833 337.449 208.31 338.47C206.787 339.49 205.027 340.1 203.2 340.242L44.3357 352.531C42.4016 352.681 40.545 353.356 38.9662 354.483C37.3873 355.61 36.146 357.146 35.376 358.927L1.7353 436.721C1.03412 438.342 0.746998 440.112 0.899755 441.872C1.05251 443.632 1.64036 445.326 2.61042 446.803C3.58048 448.279 4.90232 449.491 6.45705 450.33C8.01178 451.169 9.75063 451.608 11.5172 451.608H542.33C555.333 451.612 568.308 450.429 581.096 448.073C675.864 430.587 743.981 346.818 743.981 250.449V250.449H566.801ZM297.702 210.484H526.836V250.449H297.702V210.484ZM630.746 295.743C630.746 301.342 629.643 306.885 627.501 312.057C625.359 317.229 622.218 321.929 618.26 325.887C614.301 329.846 609.602 332.986 604.43 335.128C599.258 337.27 593.714 338.373 588.116 338.373H244.415V338.373C244.415 327.067 248.906 316.224 256.901 308.229C264.895 300.235 275.738 295.743 287.044 295.743H630.746V295.743Z" fill="#3F3D56"/>
<path id="Vector_2" d="M574.794 317.058H289.709C287.943 317.06 286.25 317.763 285.001 319.011C283.752 320.26 283.05 321.953 283.048 323.719V339.705H581.455V323.719C581.453 321.953 580.751 320.26 579.502 319.011C578.253 317.763 576.56 317.06 574.794 317.058V317.058ZM345.66 319.722H377.098V337.041H345.66V319.722ZM342.996 337.041H311.558V319.722H342.996V337.041ZM379.762 319.722H411.199V337.041H379.762V319.722ZM413.863 319.722H445.3V337.041H413.863V319.722ZM447.964 319.722H479.402V337.041H447.964V319.722ZM482.066 319.722H513.504V337.041H482.066V319.722ZM516.168 319.722H547.606V337.041H516.168V319.722ZM285.712 323.719C285.713 322.659 286.135 321.644 286.884 320.894C287.633 320.145 288.649 319.724 289.709 319.722H308.894V337.041H285.712V323.719ZM578.791 337.041H550.27V319.722H574.794C575.854 319.724 576.87 320.145 577.619 320.894C578.368 321.644 578.79 322.659 578.791 323.719V337.041Z" fill="#3F3D56"/>
<path id="Vector_3" d="M556.144 129.221H538.826V201.159H556.144V129.221Z" fill="#3F3D56"/>
</g>
</g>
</svg>
