<svg id="svg" version="1.1" xmlns="http://www.w3.org/2000/svg" xmlns:xlink="http://www.w3.org/1999/xlink" width="400" height="115.95845136921623" viewBox="0, 0, 400,115.95845136921623"><g id="svgg"><path id="path0" d="M44.167 2.333 C 44.167 2.425,44.054 2.500,43.917 2.500 C 43.761 2.500,43.667 2.657,43.667 2.917 C 43.667 3.146,43.606 3.333,43.533 3.333 C 43.459 3.333,43.381 3.633,43.359 4.000 C 43.338 4.367,43.393 4.667,43.482 4.667 C 43.571 4.667,43.668 4.873,43.697 5.125 C 43.730 5.408,43.893 5.646,44.125 5.748 C 44.331 5.838,44.500 5.970,44.500 6.040 C 44.500 6.290,46.501 6.174,46.921 5.898 C 47.146 5.751,47.295 5.573,47.252 5.504 C 47.210 5.435,47.323 5.244,47.504 5.080 C 47.877 4.742,47.977 3.275,47.641 3.067 C 47.511 2.987,47.493 3.025,47.584 3.183 C 47.665 3.321,47.658 3.360,47.568 3.278 C 47.485 3.201,47.407 3.070,47.396 2.986 C 47.384 2.902,47.366 2.758,47.354 2.667 C 47.343 2.575,47.221 2.500,47.083 2.500 C 46.946 2.500,46.833 2.425,46.833 2.333 C 46.833 2.236,46.278 2.167,45.500 2.167 C 44.722 2.167,44.167 2.236,44.167 2.333 M11.875 7.221 C 11.669 7.326,11.500 7.507,11.500 7.623 C 11.500 7.739,11.425 7.833,11.333 7.833 C 11.224 7.833,11.167 11.858,11.167 19.573 C 11.167 27.220,11.109 31.350,11.000 31.417 C 10.908 31.473,10.833 31.657,10.833 31.824 C 10.833 31.991,10.640 32.255,10.404 32.410 C 10.167 32.565,10.013 32.792,10.060 32.915 C 10.107 33.038,10.027 33.185,9.882 33.240 C 9.737 33.296,9.667 33.390,9.727 33.449 C 9.786 33.508,9.703 33.707,9.542 33.890 C 9.381 34.074,9.339 34.172,9.447 34.109 C 9.572 34.036,9.552 34.178,9.393 34.497 C 9.255 34.774,9.065 35.000,8.970 35.000 C 8.875 35.000,8.840 35.112,8.893 35.248 C 8.948 35.391,8.903 35.479,8.786 35.456 C 8.674 35.435,8.605 35.548,8.632 35.708 C 8.659 35.869,8.599 36.000,8.497 36.000 C 8.396 36.000,8.360 36.075,8.417 36.167 C 8.473 36.258,8.440 36.333,8.343 36.333 C 8.246 36.333,8.167 36.446,8.167 36.583 C 8.167 36.721,8.092 36.833,8.000 36.833 C 7.908 36.833,7.833 37.096,7.833 37.417 C 7.833 37.841,7.760 38.000,7.566 38.000 C 7.401 38.000,7.333 38.093,7.389 38.239 C 7.440 38.371,7.399 38.506,7.298 38.540 C 7.197 38.573,7.086 38.784,7.052 39.009 C 7.018 39.233,6.918 39.442,6.829 39.472 C 6.739 39.503,6.667 39.705,6.667 39.921 C 6.667 40.137,6.592 40.360,6.500 40.417 C 6.408 40.473,6.333 40.671,6.333 40.855 C 6.333 41.040,6.215 41.309,6.070 41.453 C 5.926 41.598,5.843 41.852,5.887 42.019 C 5.930 42.185,5.870 42.400,5.754 42.497 C 5.637 42.594,5.542 42.875,5.542 43.121 C 5.542 43.368,5.457 43.598,5.354 43.632 C 5.251 43.666,5.167 43.972,5.167 44.310 C 5.167 44.649,5.057 45.083,4.922 45.275 C 4.788 45.467,4.711 45.799,4.752 46.012 C 4.794 46.226,4.742 46.454,4.637 46.518 C 4.532 46.583,4.418 46.921,4.382 47.269 C 4.346 47.617,4.242 47.992,4.152 48.102 C 4.039 48.237,4.055 48.328,4.201 48.387 C 4.366 48.453,4.368 48.477,4.208 48.487 C 4.079 48.495,4.000 48.749,4.000 49.157 C 4.000 49.518,3.924 49.861,3.831 49.918 C 3.596 50.063,3.613 67.288,3.848 67.366 C 3.942 67.397,4.022 67.815,4.025 68.295 C 4.029 68.774,4.100 69.167,4.183 69.167 C 4.266 69.167,4.333 69.461,4.333 69.820 C 4.333 70.560,4.475 71.035,4.661 70.920 C 4.730 70.878,4.764 71.047,4.736 71.296 C 4.708 71.546,4.794 71.968,4.926 72.234 C 5.058 72.500,5.167 72.931,5.167 73.192 C 5.167 73.453,5.242 73.667,5.333 73.667 C 5.425 73.667,5.500 73.882,5.500 74.146 C 5.500 74.410,5.608 74.716,5.740 74.825 C 5.872 74.935,5.940 75.129,5.891 75.258 C 5.841 75.386,5.921 75.611,6.067 75.758 C 6.214 75.904,6.333 76.211,6.333 76.440 C 6.333 76.670,6.443 76.966,6.576 77.100 C 6.710 77.234,6.777 77.453,6.725 77.588 C 6.673 77.723,6.714 77.833,6.816 77.833 C 6.917 77.833,7.000 77.984,7.000 78.169 C 7.000 78.560,7.325 79.191,7.625 79.383 C 7.740 79.457,7.833 79.742,7.833 80.018 C 7.833 80.310,7.903 80.477,8.000 80.417 C 8.095 80.358,8.167 80.500,8.167 80.745 C 8.167 80.983,8.283 81.222,8.426 81.277 C 8.569 81.332,8.645 81.483,8.595 81.613 C 8.544 81.745,8.577 81.805,8.669 81.749 C 8.759 81.693,8.833 81.793,8.833 81.972 C 8.833 82.151,8.957 82.345,9.107 82.403 C 9.258 82.461,9.333 82.556,9.273 82.615 C 9.214 82.675,9.297 82.873,9.458 83.057 C 9.668 83.297,9.680 83.352,9.500 83.252 C 9.362 83.175,9.438 83.325,9.667 83.583 C 9.896 83.842,9.971 83.999,9.833 83.931 C 9.611 83.822,9.611 83.833,9.833 84.029 C 9.971 84.151,10.083 84.362,10.083 84.500 C 10.083 84.637,10.183 84.729,10.304 84.704 C 10.425 84.679,10.480 84.731,10.425 84.819 C 10.371 84.908,10.472 85.116,10.649 85.282 C 10.827 85.448,11.025 85.790,11.088 86.042 C 11.151 86.294,11.307 86.500,11.435 86.500 C 11.644 86.500,11.740 86.705,11.686 87.042 C 11.676 87.110,11.742 87.167,11.833 87.167 C 11.925 87.167,12.000 87.279,12.000 87.417 C 12.000 87.554,12.117 87.667,12.260 87.667 C 12.403 87.667,12.479 87.732,12.430 87.812 C 12.380 87.892,12.526 88.159,12.753 88.404 C 12.981 88.650,13.167 88.926,13.167 89.018 C 13.167 89.111,13.242 89.140,13.333 89.083 C 13.425 89.027,13.500 89.100,13.500 89.245 C 13.500 89.391,13.612 89.553,13.749 89.606 C 13.886 89.659,13.956 89.769,13.905 89.852 C 13.854 89.935,13.929 90.047,14.073 90.102 C 14.216 90.157,14.333 90.307,14.333 90.434 C 14.333 90.562,14.441 90.667,14.573 90.667 C 14.706 90.667,14.867 90.753,14.933 90.859 C 15.009 90.982,14.978 91.006,14.847 90.925 C 14.691 90.829,14.693 90.880,14.854 91.138 C 14.971 91.325,15.139 91.464,15.228 91.447 C 15.317 91.430,15.476 91.583,15.582 91.785 C 15.892 92.379,16.666 93.250,16.883 93.250 C 16.993 93.250,17.083 93.340,17.083 93.450 C 17.083 93.560,17.188 93.747,17.316 93.867 C 17.508 94.046,17.526 94.043,17.415 93.849 C 17.326 93.692,17.345 93.654,17.474 93.734 C 17.580 93.799,17.667 93.950,17.667 94.068 C 17.667 94.187,18.048 94.613,18.515 95.017 C 18.981 95.420,19.761 96.139,20.247 96.615 C 20.734 97.090,21.177 97.434,21.232 97.379 C 21.288 97.323,21.333 97.370,21.333 97.482 C 21.333 97.594,21.403 97.643,21.488 97.591 C 21.573 97.538,21.691 97.646,21.749 97.831 C 21.808 98.015,22.038 98.212,22.260 98.267 C 22.482 98.323,22.623 98.436,22.572 98.518 C 22.522 98.600,22.546 98.667,22.625 98.667 C 22.705 98.667,22.930 98.815,23.124 98.996 C 23.319 99.178,23.568 99.346,23.678 99.371 C 23.788 99.396,24.067 99.585,24.297 99.792 C 24.527 99.998,24.845 100.167,25.004 100.167 C 25.163 100.167,25.396 100.321,25.521 100.509 C 25.647 100.698,25.883 100.871,26.046 100.895 C 26.209 100.918,26.335 100.996,26.327 101.067 C 26.305 101.249,26.868 101.655,27.151 101.661 C 27.280 101.664,27.636 101.858,27.943 102.092 C 28.249 102.326,28.500 102.461,28.500 102.393 C 28.500 102.325,28.618 102.415,28.762 102.593 C 28.907 102.771,28.976 102.804,28.916 102.667 C 28.857 102.529,28.957 102.585,29.139 102.792 C 29.321 102.998,29.627 103.167,29.818 103.167 C 30.010 103.167,30.167 103.242,30.167 103.333 C 30.167 103.425,30.223 103.491,30.292 103.480 C 30.680 103.419,30.995 103.527,30.958 103.708 C 30.935 103.823,31.061 103.917,31.236 103.917 C 31.412 103.918,31.587 104.012,31.625 104.126 C 31.663 104.240,31.823 104.333,31.981 104.333 C 32.138 104.333,32.368 104.427,32.491 104.542 C 32.672 104.710,32.691 104.706,32.587 104.524 C 32.506 104.381,32.627 104.409,32.921 104.601 C 33.174 104.768,33.536 104.927,33.724 104.956 C 33.912 104.984,34.201 105.130,34.366 105.280 C 34.531 105.429,34.667 105.498,34.667 105.433 C 34.667 105.368,34.833 105.431,35.037 105.574 C 35.241 105.717,35.578 105.833,35.787 105.833 C 35.996 105.833,36.167 105.908,36.167 106.000 C 36.167 106.092,36.375 106.167,36.630 106.167 C 36.884 106.167,37.240 106.266,37.421 106.387 C 37.602 106.508,38.185 106.709,38.716 106.832 C 39.247 106.956,39.721 107.119,39.768 107.195 C 39.815 107.271,40.096 107.333,40.393 107.333 C 40.690 107.333,41.034 107.427,41.158 107.542 C 41.340 107.711,41.356 107.703,41.242 107.500 C 41.131 107.301,41.152 107.288,41.343 107.436 C 41.475 107.538,41.913 107.664,42.316 107.715 C 42.718 107.766,43.098 107.889,43.159 107.988 C 43.220 108.087,43.508 108.140,43.798 108.106 C 44.089 108.072,44.518 108.144,44.752 108.265 C 45.061 108.425,45.147 108.431,45.064 108.285 C 44.982 108.139,45.013 108.141,45.176 108.292 C 45.343 108.447,46.474 108.500,49.617 108.500 L 53.833 108.500 53.833 70.000 C 53.833 44.444,53.889 31.500,54.000 31.500 C 54.109 31.500,54.167 28.778,54.167 23.667 C 54.167 18.556,54.109 15.833,54.000 15.833 C 53.908 15.833,53.842 15.777,53.853 15.708 C 54.045 14.494,53.790 8.640,53.542 8.549 C 53.381 8.489,53.195 8.361,53.128 8.262 C 53.045 8.142,53.004 8.152,53.003 8.292 C 53.001 8.406,52.921 8.500,52.823 8.500 C 52.726 8.500,52.698 8.418,52.760 8.317 C 52.843 8.183,52.780 8.183,52.531 8.317 C 51.875 8.668,47.873 8.555,47.755 8.182 C 47.699 8.007,47.540 7.820,47.400 7.767 C 47.260 7.713,47.188 7.601,47.239 7.517 C 47.393 7.268,46.355 7.000,45.236 7.000 C 44.333 7.000,44.174 7.046,44.083 7.336 C 44.024 7.520,43.906 7.628,43.821 7.576 C 43.736 7.523,43.667 7.747,43.667 8.073 C 43.667 8.400,43.592 8.667,43.500 8.667 C 43.408 8.667,43.333 8.790,43.333 8.940 C 43.333 9.392,42.800 9.656,41.875 9.661 C 41.394 9.664,41.000 9.742,41.000 9.833 C 41.000 9.925,40.846 10.000,40.658 10.000 C 40.471 10.000,40.087 10.119,39.806 10.264 C 39.524 10.410,39.157 10.493,38.988 10.449 C 38.820 10.405,38.547 10.471,38.383 10.596 C 38.218 10.721,37.882 10.825,37.635 10.828 C 37.388 10.831,37.140 10.908,37.083 11.000 C 37.027 11.092,36.830 11.167,36.647 11.167 C 36.464 11.167,36.360 11.242,36.417 11.333 C 36.478 11.433,36.280 11.500,35.927 11.500 C 35.600 11.500,35.333 11.575,35.333 11.667 C 35.333 11.758,35.277 11.821,35.208 11.806 C 34.959 11.752,34.167 12.040,34.167 12.185 C 34.167 12.266,33.985 12.333,33.764 12.333 C 33.542 12.333,33.336 12.406,33.306 12.495 C 33.275 12.584,33.100 12.685,32.917 12.720 C 32.475 12.803,31.612 13.158,31.503 13.302 C 31.331 13.530,30.664 13.833,30.336 13.833 C 30.151 13.833,30.000 13.908,30.000 14.000 C 30.000 14.092,29.850 14.167,29.667 14.167 C 29.483 14.167,29.333 14.242,29.333 14.333 C 29.333 14.425,29.225 14.500,29.093 14.500 C 28.961 14.500,28.799 14.587,28.734 14.692 C 28.655 14.820,28.689 14.839,28.833 14.750 C 28.983 14.657,29.011 14.680,28.924 14.822 C 28.658 15.252,28.520 14.695,28.481 13.033 C 28.458 12.088,28.378 11.278,28.303 11.231 C 28.228 11.185,28.167 11.001,28.167 10.823 C 28.167 10.642,28.053 10.500,27.907 10.500 C 27.764 10.500,27.690 10.430,27.743 10.345 C 27.795 10.260,27.686 10.142,27.500 10.083 C 27.314 10.024,27.205 9.906,27.257 9.821 C 27.417 9.562,25.590 9.647,25.034 9.925 C 24.099 10.391,24.000 10.838,24.000 14.589 L 24.000 17.960 23.508 18.163 C 23.238 18.275,22.897 18.549,22.751 18.772 C 22.605 18.995,22.414 19.133,22.326 19.079 C 22.238 19.025,22.167 19.097,22.167 19.240 C 22.167 19.383,22.098 19.500,22.014 19.500 C 21.929 19.500,21.742 19.546,21.597 19.601 C 21.364 19.691,21.333 19.415,21.333 17.218 C 21.333 15.461,21.272 14.668,21.125 14.509 C 20.965 14.337,20.965 14.312,21.122 14.400 C 21.243 14.468,21.209 14.305,21.038 14.003 C 20.675 13.356,18.000 13.227,18.000 13.856 C 18.000 14.027,17.925 14.167,17.833 14.167 C 17.726 14.167,17.667 15.744,17.667 18.566 L 17.667 22.966 17.213 23.483 C 16.642 24.133,16.127 24.146,15.681 23.520 C 15.349 23.054,15.339 22.827,15.330 15.431 C 15.324 10.604,15.262 7.858,15.160 7.921 C 15.072 7.975,15.000 7.952,15.000 7.869 C 15.000 7.148,12.880 6.709,11.875 7.221 M18.667 9.492 C 18.667 9.588,18.517 9.667,18.333 9.667 C 18.035 9.667,17.922 9.840,17.980 10.208 C 17.991 10.277,17.925 10.333,17.833 10.333 C 17.742 10.333,17.667 10.746,17.667 11.250 C 17.667 11.754,17.742 12.167,17.833 12.167 C 17.925 12.167,18.000 12.261,18.000 12.377 C 18.000 12.492,18.158 12.685,18.351 12.806 C 18.641 12.987,18.679 12.987,18.569 12.804 C 18.459 12.622,18.483 12.621,18.705 12.801 C 19.609 13.534,21.333 12.404,21.306 11.096 C 21.292 10.378,20.807 9.667,20.332 9.667 C 20.241 9.667,20.167 9.606,20.167 9.531 C 20.167 9.457,19.829 9.378,19.417 9.357 C 18.981 9.334,18.667 9.391,18.667 9.492 M155.285 36.604 C 155.220 36.669,155.167 39.785,155.167 43.528 C 155.167 48.207,155.112 50.333,154.990 50.333 C 154.893 50.333,154.860 50.258,154.917 50.167 C 154.973 50.075,154.898 50.000,154.750 50.000 C 154.602 50.000,154.514 49.944,154.556 49.875 C 154.598 49.806,154.527 49.653,154.399 49.535 C 154.271 49.417,154.167 49.364,154.167 49.417 C 154.167 49.565,153.472 48.884,153.460 48.724 C 153.444 48.505,152.948 48.178,152.625 48.172 C 152.465 48.169,152.333 48.092,152.333 48.000 C 152.333 47.908,152.240 47.832,152.125 47.830 C 152.010 47.829,151.740 47.641,151.524 47.414 C 151.308 47.186,151.005 47.000,150.849 47.000 C 150.694 47.000,150.466 46.906,150.342 46.792 C 150.162 46.624,150.142 46.626,150.243 46.804 C 150.375 47.036,150.389 47.041,149.219 46.459 C 148.356 46.029,142.825 46.082,143.094 46.517 C 143.145 46.600,142.877 46.667,142.500 46.667 C 142.085 46.667,141.854 46.733,141.917 46.833 C 141.976 46.930,141.814 47.000,141.530 47.000 C 141.261 47.000,140.946 47.114,140.830 47.254 C 140.714 47.394,140.584 47.473,140.542 47.431 C 140.499 47.388,140.267 47.536,140.025 47.760 C 139.784 47.984,139.455 48.167,139.293 48.167 C 139.132 48.167,139.000 48.242,139.000 48.333 C 139.000 48.425,138.883 48.500,138.740 48.500 C 138.597 48.500,138.527 48.575,138.583 48.667 C 138.640 48.758,138.557 48.833,138.399 48.833 C 138.241 48.833,138.155 48.877,138.208 48.931 C 138.330 49.052,137.730 49.667,137.490 49.667 C 137.393 49.667,137.360 49.742,137.417 49.833 C 137.473 49.925,137.403 50.000,137.260 50.000 C 137.117 50.000,137.000 50.103,137.000 50.230 C 137.000 50.356,136.890 50.551,136.755 50.662 C 136.621 50.774,136.527 50.952,136.547 51.058 C 136.567 51.163,136.490 51.231,136.375 51.208 C 136.260 51.185,136.167 51.303,136.167 51.469 C 136.167 51.635,136.035 51.919,135.875 52.100 C 135.715 52.281,135.559 52.539,135.529 52.673 C 135.499 52.807,135.405 52.942,135.320 52.973 C 135.234 53.003,135.207 53.097,135.259 53.181 C 135.311 53.265,135.274 53.333,135.177 53.333 C 135.079 53.333,135.009 53.390,135.020 53.458 C 135.084 53.868,134.978 54.173,134.807 54.067 C 134.675 53.985,134.644 54.062,134.709 54.310 C 134.763 54.517,134.703 54.774,134.568 54.908 C 134.439 55.037,134.333 55.448,134.333 55.821 C 134.333 56.195,134.262 56.500,134.174 56.500 C 134.079 56.500,134.016 57.771,134.016 59.672 C 134.016 61.641,134.076 62.806,134.174 62.745 C 134.313 62.659,134.418 63.382,134.349 63.946 C 134.335 64.053,134.401 64.189,134.496 64.247 C 134.590 64.305,134.667 64.500,134.667 64.679 C 134.667 65.061,134.995 65.693,135.292 65.883 C 135.406 65.957,135.502 66.182,135.504 66.383 C 135.506 66.585,135.654 66.938,135.833 67.167 C 136.013 67.396,136.161 67.645,136.163 67.719 C 136.170 67.970,137.717 69.655,137.860 69.567 C 137.937 69.519,138.000 69.556,138.000 69.648 C 138.000 69.741,138.188 70.018,138.417 70.266 C 138.646 70.513,138.833 70.653,138.833 70.576 C 138.833 70.499,138.939 70.581,139.069 70.759 C 139.199 70.936,139.442 71.081,139.611 71.082 C 139.779 71.083,139.900 71.172,139.879 71.279 C 139.858 71.387,140.065 71.574,140.337 71.695 C 140.610 71.816,140.833 71.971,140.833 72.041 C 140.833 72.110,141.058 72.167,141.333 72.167 C 141.617 72.167,141.815 72.248,141.792 72.354 C 141.769 72.457,141.854 72.580,141.982 72.626 C 142.113 72.674,142.167 72.635,142.106 72.537 C 142.041 72.432,142.125 72.397,142.322 72.449 C 142.499 72.495,142.682 72.633,142.729 72.756 C 142.783 72.895,143.075 72.976,143.504 72.970 C 143.883 72.965,144.278 73.044,144.380 73.147 C 144.633 73.400,144.883 73.384,144.728 73.125 C 144.632 72.965,144.659 72.961,144.843 73.105 C 145.140 73.337,147.993 73.398,148.328 73.179 C 148.487 73.075,148.647 73.081,148.786 73.197 C 148.938 73.322,149.064 73.321,149.219 73.192 C 149.340 73.092,149.683 72.991,149.982 72.969 C 150.281 72.946,150.562 72.869,150.606 72.797 C 150.650 72.725,150.827 72.667,150.998 72.667 C 151.169 72.667,151.418 72.558,151.552 72.425 C 151.685 72.291,151.840 72.229,151.897 72.286 C 151.954 72.342,152.000 72.310,152.000 72.214 C 152.000 72.117,152.197 71.909,152.437 71.752 C 152.678 71.594,152.823 71.548,152.761 71.649 C 152.698 71.751,152.726 71.833,152.823 71.833 C 152.921 71.833,153.000 71.758,153.000 71.667 C 153.000 71.575,153.094 71.498,153.208 71.494 C 153.492 71.487,154.167 70.908,154.167 70.672 C 154.167 70.566,154.238 70.524,154.325 70.578 C 154.412 70.632,154.560 70.533,154.653 70.359 C 154.919 69.862,155.402 69.820,155.617 70.275 C 155.719 70.491,155.734 70.625,155.651 70.574 C 155.442 70.445,155.461 70.554,155.741 71.094 C 155.874 71.350,155.945 71.621,155.898 71.696 C 155.852 71.772,155.935 71.833,156.083 71.833 C 156.232 71.833,156.307 71.908,156.250 72.000 C 156.193 72.092,156.255 72.167,156.388 72.167 C 156.520 72.167,156.755 72.360,156.910 72.596 C 157.066 72.834,157.292 72.988,157.417 72.940 C 157.541 72.892,157.732 72.961,157.842 73.093 C 158.069 73.368,158.763 73.415,158.917 73.167 C 158.973 73.075,159.095 73.000,159.186 73.000 C 159.278 73.000,159.307 73.075,159.250 73.167 C 159.191 73.263,159.345 73.332,159.615 73.331 C 159.993 73.329,160.035 73.294,159.833 73.150 C 159.632 73.006,159.654 72.987,159.951 73.051 C 160.697 73.214,160.862 72.866,160.891 71.074 L 160.917 69.417 160.417 69.368 L 159.917 69.318 159.960 53.148 C 159.986 43.380,159.943 37.016,159.851 37.073 C 159.766 37.125,159.735 37.025,159.781 36.851 C 159.866 36.524,155.599 36.290,155.285 36.604 M174.969 46.328 C 174.723 46.404,174.479 46.423,174.427 46.372 C 174.376 46.320,174.333 46.365,174.333 46.472 C 174.333 46.583,174.086 46.667,173.760 46.667 C 173.444 46.667,173.140 46.742,173.083 46.833 C 173.027 46.925,172.797 47.000,172.573 47.000 C 172.350 47.000,172.167 47.075,172.167 47.167 C 172.167 47.258,172.014 47.333,171.828 47.333 C 171.642 47.333,171.446 47.446,171.394 47.583 C 171.341 47.721,171.156 47.833,170.982 47.833 C 170.809 47.833,170.667 47.896,170.667 47.972 C 170.667 48.048,170.460 48.217,170.208 48.347 C 169.956 48.477,169.557 48.771,169.321 49.000 C 169.086 49.229,168.504 49.770,168.030 50.201 C 167.555 50.633,167.167 51.038,167.167 51.102 C 167.167 51.166,166.982 51.460,166.757 51.755 C 166.532 52.051,166.395 52.339,166.452 52.396 C 166.509 52.453,166.474 52.500,166.373 52.500 C 166.174 52.500,165.667 53.416,165.667 53.776 C 165.667 53.899,165.608 54.000,165.536 54.000 C 165.465 54.000,165.389 54.202,165.369 54.449 C 165.348 54.696,165.247 54.950,165.144 55.014 C 165.040 55.078,164.933 55.450,164.905 55.840 C 164.877 56.231,164.780 56.597,164.689 56.653 C 164.434 56.811,164.481 62.670,164.738 62.768 C 164.858 62.815,164.911 63.046,164.868 63.340 C 164.828 63.615,164.872 63.833,164.968 63.833 C 165.063 63.833,165.188 64.077,165.246 64.375 C 165.426 65.290,166.167 66.853,166.364 66.731 C 166.437 66.686,166.452 66.766,166.397 66.908 C 166.333 67.076,166.392 67.167,166.566 67.167 C 166.713 67.167,166.833 67.286,166.833 67.433 C 166.833 67.926,168.868 70.312,169.200 70.208 C 169.273 70.185,169.483 70.317,169.667 70.500 C 169.850 70.683,169.952 70.833,169.894 70.833 C 169.836 70.833,169.985 70.988,170.226 71.177 C 170.467 71.367,170.739 71.475,170.832 71.418 C 170.924 71.360,171.000 71.431,171.000 71.573 C 171.000 71.722,171.143 71.833,171.333 71.833 C 171.517 71.833,171.667 71.913,171.667 72.010 C 171.667 72.107,171.738 72.142,171.826 72.088 C 171.913 72.034,172.132 72.116,172.311 72.270 C 172.491 72.424,172.926 72.650,173.278 72.772 C 174.063 73.046,174.047 73.046,173.895 72.792 C 173.795 72.625,173.821 72.625,174.025 72.790 C 174.166 72.904,174.319 72.958,174.367 72.911 C 174.414 72.864,174.547 72.940,174.663 73.079 C 174.919 73.388,175.410 73.428,175.228 73.125 C 175.131 72.964,175.158 72.960,175.343 73.108 C 175.783 73.457,180.381 73.358,181.116 72.984 C 181.591 72.741,181.762 72.717,181.863 72.876 C 181.943 73.002,181.996 73.012,181.997 72.902 C 181.999 72.802,182.191 72.633,182.425 72.527 C 182.961 72.282,183.050 72.284,182.896 72.533 C 182.829 72.642,183.005 72.567,183.287 72.366 C 183.570 72.165,183.886 72.000,183.989 72.000 C 184.093 72.000,184.220 71.887,184.273 71.750 C 184.326 71.612,184.440 71.500,184.528 71.500 C 184.615 71.500,184.632 71.588,184.566 71.695 C 184.499 71.802,184.643 71.746,184.884 71.570 C 185.125 71.394,185.325 71.189,185.328 71.115 C 185.331 71.041,185.403 71.023,185.487 71.075 C 185.572 71.128,185.801 70.946,185.996 70.672 C 186.192 70.397,186.404 70.183,186.468 70.196 C 186.711 70.245,187.167 69.955,187.167 69.751 C 187.167 69.633,187.422 69.333,187.734 69.085 C 189.324 67.817,189.582 66.021,188.195 65.878 C 187.864 65.844,187.546 65.741,187.490 65.650 C 187.333 65.397,185.073 65.533,185.125 65.792 C 185.148 65.906,185.087 66.000,184.990 66.000 C 184.893 66.000,184.858 66.071,184.911 66.158 C 184.965 66.245,184.857 66.398,184.671 66.498 C 184.485 66.597,184.333 66.791,184.333 66.928 C 184.333 67.065,184.221 67.220,184.083 67.273 C 183.946 67.326,183.833 67.473,183.833 67.601 C 183.833 67.729,183.683 67.833,183.500 67.833 C 183.317 67.833,183.167 67.908,183.167 68.000 C 183.167 68.092,183.050 68.167,182.907 68.167 C 182.764 68.167,182.693 68.242,182.750 68.333 C 182.807 68.425,182.708 68.500,182.530 68.500 C 182.353 68.500,182.115 68.612,182.002 68.748 C 181.888 68.885,181.738 68.960,181.667 68.917 C 181.596 68.873,181.445 68.949,181.332 69.085 C 181.219 69.222,180.963 69.333,180.763 69.333 C 180.563 69.333,180.329 69.404,180.242 69.491 C 180.155 69.578,179.746 69.667,179.333 69.688 C 178.921 69.710,178.452 69.807,178.292 69.904 C 178.091 70.025,177.909 70.027,177.708 69.909 C 177.548 69.814,176.967 69.717,176.417 69.691 C 175.867 69.666,175.392 69.575,175.361 69.489 C 175.331 69.403,175.170 69.333,175.004 69.333 C 174.838 69.333,174.655 69.210,174.597 69.059 C 174.539 68.909,174.447 68.831,174.392 68.886 C 174.337 68.941,174.051 68.801,173.755 68.576 C 173.460 68.351,173.159 68.167,173.087 68.167 C 173.014 68.167,172.785 67.984,172.578 67.760 C 172.371 67.537,172.156 67.399,172.101 67.455 C 172.045 67.510,172.000 67.426,172.000 67.268 C 172.000 67.110,171.941 67.017,171.869 67.061 C 171.796 67.106,171.640 66.923,171.521 66.654 C 171.402 66.385,171.238 66.206,171.157 66.256 C 171.076 66.306,170.962 66.157,170.904 65.925 C 170.845 65.692,170.731 65.544,170.649 65.594 C 170.567 65.645,170.500 65.581,170.500 65.451 C 170.500 65.322,170.318 64.874,170.096 64.457 C 169.874 64.039,169.734 63.655,169.785 63.604 C 169.837 63.552,169.756 63.323,169.606 63.094 C 169.456 62.866,169.333 62.376,169.333 62.006 L 169.333 61.333 179.625 61.314 C 185.285 61.304,189.992 61.277,190.083 61.256 C 190.175 61.235,190.362 61.205,190.500 61.191 C 190.637 61.176,190.837 60.977,190.943 60.748 C 191.049 60.520,191.065 60.377,190.978 60.430 C 190.887 60.487,190.859 60.363,190.913 60.139 C 191.005 59.752,191.045 58.638,191.008 57.474 C 190.997 57.139,190.879 56.773,190.744 56.662 C 190.610 56.550,190.501 56.375,190.503 56.271 C 190.504 56.168,190.578 56.196,190.667 56.333 C 190.806 56.549,190.829 56.544,190.831 56.302 C 190.832 56.146,190.758 55.973,190.667 55.917 C 190.575 55.860,190.500 55.633,190.500 55.412 C 190.500 55.191,190.350 54.743,190.167 54.417 C 189.983 54.090,189.833 53.685,189.833 53.515 C 189.833 53.346,189.721 53.114,189.583 53.000 C 189.446 52.886,189.333 52.685,189.333 52.553 C 189.333 52.421,189.258 52.360,189.167 52.417 C 189.016 52.510,188.927 52.288,188.982 51.954 C 188.994 51.882,188.890 51.781,188.752 51.728 C 188.613 51.674,188.500 51.543,188.500 51.436 C 188.500 51.328,188.350 51.132,188.167 51.000 C 187.983 50.868,187.833 50.695,187.833 50.615 C 187.833 50.410,186.173 48.833,185.957 48.833 C 185.858 48.833,185.827 48.784,185.886 48.725 C 186.034 48.577,185.486 48.179,185.125 48.172 C 184.965 48.169,184.833 48.087,184.833 47.990 C 184.833 47.893,184.770 47.853,184.692 47.901 C 184.614 47.949,184.392 47.841,184.199 47.661 C 184.005 47.481,183.732 47.333,183.590 47.333 C 183.449 47.333,183.333 47.274,183.333 47.202 C 183.333 47.130,183.171 47.059,182.973 47.044 C 182.775 47.029,182.551 46.919,182.476 46.800 C 182.368 46.630,182.337 46.638,182.333 46.833 C 182.330 46.997,182.286 47.019,182.206 46.899 C 182.138 46.798,181.802 46.663,181.458 46.600 C 181.115 46.537,180.833 46.419,180.833 46.339 C 180.833 46.154,175.569 46.144,174.969 46.328 M191.427 46.816 C 191.377 46.898,191.447 47.179,191.583 47.441 C 191.720 47.703,191.832 48.010,191.832 48.125 C 191.833 48.240,191.908 48.333,192.000 48.333 C 192.092 48.333,192.167 48.521,192.167 48.750 C 192.167 48.979,192.242 49.167,192.333 49.167 C 192.425 49.167,192.500 49.350,192.500 49.573 C 192.500 49.797,192.575 50.027,192.667 50.083 C 192.758 50.140,192.833 50.336,192.833 50.520 C 192.833 50.729,192.905 50.809,193.026 50.734 C 193.147 50.659,193.173 50.689,193.095 50.815 C 193.027 50.925,193.062 51.124,193.173 51.257 C 193.284 51.391,193.321 51.500,193.257 51.500 C 193.192 51.500,193.286 51.744,193.466 52.042 C 193.645 52.340,193.757 52.677,193.715 52.792 C 193.673 52.906,193.705 53.000,193.786 53.000 C 193.901 53.000,194.294 53.823,194.423 54.333 C 194.597 55.025,194.729 55.333,194.851 55.333 C 194.933 55.333,194.988 55.390,194.974 55.458 C 194.943 55.602,195.121 56.118,195.345 56.539 C 195.430 56.699,195.500 56.948,195.500 57.093 C 195.500 57.238,195.609 57.466,195.743 57.600 C 195.877 57.734,195.944 57.953,195.892 58.087 C 195.840 58.223,195.916 58.376,196.065 58.433 C 196.212 58.489,196.294 58.595,196.249 58.669 C 196.138 58.847,196.337 59.351,196.482 59.261 C 196.545 59.222,196.612 59.388,196.632 59.630 C 196.652 59.871,196.743 60.143,196.834 60.234 C 196.925 60.325,197.000 60.577,197.000 60.793 C 197.000 61.013,197.074 61.141,197.167 61.083 C 197.263 61.024,197.333 61.186,197.333 61.470 C 197.333 61.739,197.446 62.053,197.583 62.167 C 197.721 62.281,197.833 62.519,197.833 62.697 C 197.833 62.874,197.908 62.973,198.000 62.917 C 198.099 62.855,198.167 63.051,198.167 63.397 C 198.167 63.718,198.242 64.027,198.333 64.083 C 198.425 64.140,198.500 64.317,198.500 64.477 C 198.500 64.636,198.593 64.860,198.706 64.973 C 198.820 65.087,198.914 65.308,198.915 65.465 C 198.916 65.622,199.010 65.731,199.125 65.708 C 199.243 65.685,199.342 65.847,199.354 66.083 C 199.385 66.704,199.405 66.794,199.542 66.931 C 199.610 66.999,199.667 67.197,199.667 67.371 C 199.667 67.544,199.742 67.640,199.833 67.583 C 199.925 67.527,200.009 67.635,200.021 67.823 C 200.058 68.430,200.080 68.510,200.250 68.631 C 200.342 68.696,200.437 68.934,200.462 69.159 C 200.488 69.385,200.563 69.610,200.629 69.659 C 200.739 69.742,201.134 70.679,201.229 71.083 C 201.251 71.175,201.397 71.493,201.554 71.790 C 201.711 72.087,201.834 72.349,201.826 72.373 C 201.647 72.922,205.996 73.213,206.329 72.674 C 206.398 72.563,206.519 72.484,206.598 72.498 C 206.677 72.513,206.772 72.434,206.809 72.323 C 206.853 72.191,206.796 72.167,206.647 72.254 C 206.520 72.327,206.593 72.193,206.809 71.956 C 207.025 71.719,207.157 71.453,207.103 71.365 C 207.048 71.276,207.115 71.112,207.252 70.998 C 207.388 70.885,207.500 70.614,207.500 70.396 C 207.500 70.178,207.581 70.000,207.681 70.000 C 207.780 70.000,207.828 69.906,207.788 69.792 C 207.747 69.677,207.868 69.364,208.057 69.095 C 208.245 68.826,208.294 68.671,208.167 68.750 C 208.039 68.829,208.104 68.655,208.311 68.365 C 208.518 68.074,208.646 67.769,208.596 67.687 C 208.545 67.605,208.615 67.445,208.752 67.332 C 208.888 67.219,209.000 66.870,209.000 66.558 C 209.000 66.203,209.095 65.953,209.253 65.892 C 209.392 65.839,209.493 65.710,209.477 65.606 C 209.437 65.346,209.666 64.809,209.968 64.458 C 210.176 64.215,210.179 64.166,209.984 64.164 C 209.844 64.163,209.817 64.112,209.917 64.039 C 210.080 63.919,210.290 63.513,210.798 62.333 C 210.936 62.012,211.119 61.611,211.203 61.441 C 211.309 61.229,211.302 61.167,211.179 61.242 C 210.903 61.413,210.966 61.199,211.341 60.692 C 211.529 60.438,211.695 60.071,211.709 59.876 C 211.724 59.682,211.795 59.560,211.868 59.605 C 211.941 59.650,212.009 59.551,212.019 59.385 C 212.030 59.219,212.056 59.008,212.077 58.917 C 212.098 58.825,212.127 58.652,212.141 58.532 C 212.155 58.412,212.249 58.364,212.349 58.427 C 212.463 58.497,212.508 58.422,212.468 58.228 C 212.433 58.057,212.520 57.817,212.661 57.696 C 212.853 57.530,212.857 57.506,212.676 57.601 C 212.534 57.675,212.590 57.508,212.811 57.198 C 213.018 56.907,213.145 56.599,213.092 56.515 C 213.040 56.430,213.110 56.247,213.248 56.109 C 213.387 55.970,213.502 55.758,213.505 55.637 C 213.508 55.516,213.621 55.271,213.756 55.092 C 213.891 54.914,213.961 54.641,213.912 54.487 C 213.861 54.325,213.930 54.165,214.076 54.109 C 214.214 54.056,214.288 53.909,214.240 53.783 C 214.191 53.657,214.271 53.454,214.417 53.333 C 214.593 53.187,214.622 53.075,214.503 53.002 C 214.386 52.930,214.454 52.725,214.696 52.417 C 214.901 52.157,215.075 51.750,215.082 51.513 C 215.090 51.270,215.184 51.101,215.298 51.125 C 215.409 51.148,215.500 51.021,215.500 50.843 C 215.500 50.665,215.566 50.479,215.646 50.430 C 215.726 50.380,215.792 50.146,215.792 49.910 C 215.792 49.488,216.305 48.301,216.532 48.198 C 216.596 48.169,216.607 48.037,216.556 47.906 C 216.506 47.774,216.552 47.667,216.659 47.667 C 216.766 47.667,216.811 47.598,216.759 47.514 C 216.707 47.430,216.754 47.332,216.862 47.296 C 216.973 47.259,217.012 47.106,216.952 46.948 C 216.858 46.704,216.557 46.667,214.672 46.667 L 212.500 46.667 212.500 47.093 C 212.500 47.328,212.441 47.483,212.368 47.438 C 212.295 47.393,212.224 47.513,212.210 47.705 C 212.195 47.897,212.107 48.101,212.013 48.159 C 211.856 48.256,211.710 48.757,211.679 49.302 C 211.672 49.421,211.587 49.470,211.489 49.410 C 211.391 49.349,211.325 49.401,211.342 49.525 C 211.408 50.007,211.326 50.348,211.167 50.250 C 211.069 50.190,211.000 50.359,211.000 50.657 C 211.000 50.937,210.925 51.167,210.833 51.167 C 210.742 51.167,210.667 51.345,210.667 51.563 C 210.667 51.781,210.551 52.055,210.409 52.173 C 210.267 52.291,210.188 52.482,210.233 52.598 C 210.277 52.714,210.205 52.899,210.073 53.008 C 209.941 53.118,209.833 53.381,209.833 53.594 C 209.833 53.806,209.758 54.027,209.667 54.083 C 209.575 54.140,209.500 54.402,209.500 54.667 C 209.500 54.931,209.425 55.193,209.333 55.250 C 209.242 55.307,209.167 55.536,209.167 55.760 C 209.167 55.984,209.083 56.148,208.980 56.125 C 208.878 56.102,208.771 56.224,208.742 56.397 C 208.713 56.569,208.610 56.790,208.512 56.888 C 208.414 56.986,208.333 57.262,208.333 57.500 C 208.333 57.738,208.260 58.006,208.171 58.095 C 208.082 58.184,207.983 58.430,207.951 58.642 C 207.918 58.854,207.793 59.089,207.672 59.164 C 207.551 59.238,207.495 59.414,207.549 59.553 C 207.602 59.692,207.557 59.840,207.448 59.882 C 207.339 59.924,207.145 60.324,207.017 60.771 C 206.890 61.218,206.702 61.691,206.601 61.824 C 206.457 62.012,206.467 62.034,206.647 61.925 C 206.774 61.849,206.686 62.068,206.452 62.412 C 206.218 62.757,206.053 63.174,206.084 63.339 C 206.116 63.505,206.035 63.681,205.905 63.732 C 205.774 63.782,205.667 63.966,205.667 64.141 C 205.667 64.316,205.553 64.731,205.414 65.063 C 205.276 65.395,205.216 65.667,205.281 65.667 C 205.346 65.667,205.310 65.757,205.200 65.867 C 205.090 65.977,205.000 66.204,205.000 66.372 C 205.000 66.540,204.887 66.720,204.750 66.773 C 204.612 66.826,204.500 67.044,204.500 67.258 C 204.500 67.788,204.246 67.910,204.204 67.401 C 204.185 67.177,204.056 66.820,203.918 66.608 C 203.779 66.397,203.722 66.161,203.791 66.085 C 203.860 66.009,203.828 65.997,203.720 66.059 C 203.466 66.205,203.352 66.009,203.301 65.344 C 203.279 65.049,203.202 64.772,203.130 64.727 C 203.059 64.683,203.000 64.462,203.000 64.235 C 203.000 64.008,202.883 63.778,202.740 63.723 C 202.598 63.668,202.519 63.523,202.567 63.400 C 202.614 63.277,202.543 62.968,202.410 62.713 C 202.278 62.459,202.168 62.163,202.168 62.056 C 202.167 61.949,202.082 61.833,201.979 61.799 C 201.876 61.764,201.792 61.534,201.792 61.288 C 201.792 61.041,201.693 60.758,201.572 60.658 C 201.452 60.558,201.399 60.356,201.455 60.210 C 201.522 60.035,201.491 59.986,201.362 60.066 C 201.231 60.147,201.166 60.033,201.164 59.718 C 201.163 59.461,201.081 59.137,200.982 59.000 C 200.836 58.797,200.822 58.811,200.910 59.078 C 200.969 59.259,200.958 59.347,200.886 59.275 C 200.814 59.203,200.743 58.915,200.729 58.635 C 200.715 58.355,200.617 58.072,200.510 58.006 C 200.404 57.940,200.307 57.706,200.296 57.485 C 200.284 57.264,200.170 56.959,200.042 56.806 C 199.810 56.531,199.704 56.186,199.679 55.625 C 199.672 55.465,199.554 55.333,199.417 55.333 C 199.241 55.333,199.167 55.156,199.167 54.738 C 199.167 54.411,199.053 54.030,198.915 53.891 C 198.777 53.753,198.703 53.576,198.752 53.497 C 198.800 53.419,198.694 53.095,198.515 52.777 C 198.336 52.459,198.235 52.154,198.290 52.099 C 198.344 52.045,198.297 52.000,198.185 52.000 C 198.072 52.000,198.027 51.924,198.084 51.832 C 198.141 51.740,198.071 51.547,197.927 51.403 C 197.784 51.260,197.667 50.923,197.667 50.655 C 197.667 50.386,197.592 50.167,197.500 50.167 C 197.408 50.167,197.333 50.017,197.333 49.833 C 197.333 49.650,197.271 49.500,197.194 49.500 C 197.118 49.500,197.045 49.406,197.031 49.292 C 197.018 49.177,196.987 48.912,196.962 48.702 C 196.937 48.492,196.842 48.267,196.750 48.202 C 196.658 48.137,196.559 47.909,196.529 47.695 C 196.400 46.772,196.112 46.667,193.723 46.667 C 192.511 46.667,191.478 46.734,191.427 46.816 M178.500 49.717 C 178.500 49.802,178.650 49.833,178.834 49.785 C 179.034 49.732,179.126 49.765,179.063 49.867 C 178.997 49.973,179.091 49.994,179.314 49.923 C 179.521 49.857,179.888 49.919,180.193 50.072 C 180.482 50.216,180.844 50.333,180.998 50.333 C 181.152 50.333,181.334 50.390,181.403 50.458 C 181.472 50.527,181.578 50.584,181.639 50.584 C 181.700 50.584,182.020 50.790,182.349 51.042 C 182.679 51.294,183.054 51.501,183.182 51.502 C 183.311 51.503,183.588 51.769,183.797 52.092 C 184.019 52.433,184.256 52.631,184.365 52.564 C 184.473 52.497,184.505 52.523,184.441 52.628 C 184.380 52.726,184.528 52.963,184.771 53.153 C 185.013 53.344,185.152 53.500,185.080 53.500 C 185.008 53.500,185.084 53.650,185.250 53.833 C 185.416 54.017,185.491 54.167,185.417 54.167 C 185.342 54.167,185.405 54.303,185.556 54.469 C 185.706 54.636,185.877 55.012,185.936 55.306 C 185.995 55.600,186.120 55.888,186.214 55.946 C 186.319 56.011,186.333 55.968,186.250 55.833 C 186.161 55.689,186.180 55.655,186.308 55.734 C 186.413 55.799,186.500 56.228,186.500 56.686 C 186.500 57.145,186.559 57.483,186.632 57.438 C 186.705 57.393,186.775 57.501,186.788 57.678 C 186.812 57.992,186.603 58.000,177.906 58.000 L 169.000 58.000 169.003 57.458 C 169.004 57.047,169.044 56.977,169.167 57.167 C 169.285 57.349,169.329 57.223,169.331 56.696 C 169.332 56.266,169.439 55.871,169.596 55.713 C 169.741 55.569,169.824 55.316,169.781 55.153 C 169.738 54.987,169.811 54.814,169.946 54.762 C 170.079 54.711,170.145 54.600,170.092 54.515 C 170.040 54.430,170.129 54.228,170.290 54.067 C 170.451 53.906,170.546 53.750,170.500 53.721 C 170.454 53.692,170.642 53.428,170.917 53.134 C 171.192 52.841,171.311 52.665,171.183 52.743 C 171.023 52.839,170.987 52.823,171.067 52.692 C 171.133 52.587,171.299 52.500,171.436 52.500 C 171.574 52.500,171.640 52.425,171.583 52.333 C 171.527 52.242,171.597 52.167,171.740 52.167 C 171.883 52.167,172.000 52.050,172.000 51.907 C 172.000 51.764,172.075 51.693,172.167 51.750 C 172.258 51.807,172.333 51.724,172.333 51.565 C 172.333 51.407,172.379 51.323,172.434 51.379 C 172.490 51.434,172.704 51.297,172.912 51.073 C 173.119 50.850,173.374 50.667,173.480 50.667 C 173.585 50.667,173.820 50.592,174.002 50.500 C 174.184 50.408,174.491 50.253,174.684 50.154 C 174.962 50.012,175.009 50.021,174.910 50.196 C 174.809 50.374,174.828 50.376,175.009 50.208 C 175.132 50.094,175.560 50.000,175.960 50.000 C 176.362 50.000,176.644 49.931,176.591 49.846 C 176.539 49.761,176.628 49.656,176.790 49.612 C 177.285 49.479,178.500 49.553,178.500 49.717 M148.083 50.167 C 148.140 50.258,148.429 50.333,148.727 50.333 C 149.024 50.333,149.368 50.427,149.491 50.542 C 149.643 50.682,149.680 50.686,149.605 50.553 C 149.534 50.427,149.676 50.447,149.997 50.607 C 150.274 50.745,150.500 50.932,150.500 51.022 C 150.500 51.112,150.576 51.140,150.668 51.083 C 150.760 51.026,150.881 51.096,150.936 51.239 C 150.991 51.383,151.150 51.500,151.290 51.500 C 151.430 51.500,151.684 51.661,151.855 51.859 C 152.027 52.056,152.167 52.159,152.167 52.086 C 152.167 52.014,152.323 52.153,152.513 52.396 C 152.704 52.638,152.941 52.787,153.039 52.726 C 153.138 52.665,153.174 52.687,153.119 52.776 C 153.064 52.864,153.234 53.139,153.497 53.386 C 153.759 53.634,154.073 54.061,154.194 54.335 C 154.315 54.609,154.471 54.833,154.541 54.833 C 154.610 54.833,154.667 54.950,154.667 55.093 C 154.667 55.236,154.734 55.312,154.816 55.261 C 155.101 55.084,155.138 55.644,155.139 60.213 C 155.140 64.030,155.100 64.823,154.903 64.899 C 154.773 64.949,154.667 65.144,154.667 65.333 C 154.667 65.522,154.554 65.720,154.417 65.773 C 154.279 65.826,154.167 65.933,154.167 66.012 C 154.167 66.091,153.904 66.418,153.583 66.739 C 153.262 67.060,153.000 67.278,153.000 67.224 C 153.000 67.170,152.888 67.219,152.752 67.332 C 152.615 67.445,152.545 67.604,152.595 67.686 C 152.645 67.767,152.588 67.835,152.468 67.837 C 152.348 67.839,152.063 67.987,151.833 68.167 C 151.604 68.346,151.243 68.494,151.032 68.496 C 150.818 68.498,150.693 68.574,150.750 68.667 C 150.810 68.763,150.647 68.833,150.364 68.833 C 150.094 68.833,149.781 68.946,149.667 69.083 C 149.553 69.221,149.281 69.333,149.063 69.333 C 148.845 69.333,148.667 69.408,148.667 69.500 C 148.667 69.595,148.167 69.667,147.500 69.667 C 146.833 69.667,146.333 69.595,146.333 69.500 C 146.333 69.408,146.004 69.333,145.601 69.333 C 145.102 69.333,144.838 69.253,144.772 69.082 C 144.719 68.943,144.618 68.840,144.546 68.852 C 144.169 68.913,143.826 68.813,143.917 68.667 C 143.973 68.575,143.865 68.500,143.677 68.500 C 143.488 68.500,143.333 68.441,143.333 68.369 C 143.333 68.297,143.183 68.226,142.998 68.212 C 142.626 68.184,142.167 67.792,142.167 67.502 C 142.167 67.398,142.092 67.360,142.000 67.417 C 141.908 67.473,141.833 67.419,141.833 67.296 C 141.833 67.173,141.627 66.949,141.375 66.799 C 141.123 66.649,140.767 66.239,140.584 65.888 C 140.401 65.537,140.176 65.159,140.084 65.047 C 139.992 64.936,139.823 64.733,139.708 64.596 C 139.594 64.459,139.500 64.194,139.500 64.007 C 139.500 63.820,139.425 63.667,139.333 63.667 C 139.242 63.667,139.167 63.494,139.167 63.283 C 139.167 63.072,139.076 62.810,138.966 62.699 C 138.856 62.589,138.783 62.230,138.805 61.902 C 138.831 61.529,138.782 61.346,138.675 61.412 C 138.573 61.474,138.544 61.412,138.603 61.259 C 138.658 61.116,138.637 61.000,138.558 61.000 C 138.321 61.000,138.388 58.447,138.631 58.191 C 138.805 58.007,138.805 57.916,138.631 57.700 C 138.452 57.480,138.456 57.460,138.653 57.579 C 138.827 57.683,138.864 57.653,138.792 57.465 C 138.737 57.324,138.796 57.009,138.923 56.765 C 139.049 56.522,139.080 56.367,138.992 56.422 C 138.903 56.476,138.918 56.329,139.025 56.094 C 139.133 55.859,139.289 55.667,139.374 55.667 C 139.459 55.667,139.494 55.573,139.452 55.458 C 139.411 55.344,139.498 55.106,139.647 54.930 C 139.865 54.670,139.869 54.635,139.667 54.746 C 139.529 54.821,139.585 54.718,139.792 54.518 C 139.998 54.318,140.167 54.044,140.167 53.910 C 140.167 53.776,140.243 53.667,140.336 53.667 C 140.429 53.667,140.629 53.407,140.780 53.090 C 140.931 52.774,141.112 52.549,141.181 52.592 C 141.250 52.635,141.447 52.500,141.618 52.293 C 141.790 52.086,142.077 51.830,142.257 51.724 C 142.436 51.618,142.565 51.449,142.542 51.349 C 142.519 51.249,142.640 51.167,142.811 51.167 C 142.982 51.167,143.301 51.028,143.519 50.858 C 143.738 50.689,144.010 50.582,144.125 50.622 C 144.240 50.662,144.333 50.613,144.333 50.514 C 144.333 50.415,144.596 50.333,144.917 50.333 C 145.237 50.333,145.500 50.258,145.500 50.167 C 145.500 50.070,146.024 50.000,146.740 50.000 C 147.422 50.000,148.027 50.075,148.083 50.167 " stroke="none" fill="#8454e4" fill-rule="evenodd"></path><path id="path1" d="M57.167 58.570 C 57.167 86.108,57.212 108.758,57.268 108.903 C 57.381 109.198,58.667 109.287,58.667 109.000 C 58.667 108.896,59.611 108.833,61.167 108.833 C 63.534 108.833,63.667 108.851,63.667 109.158 C 63.667 109.682,64.670 110.333,65.476 110.333 C 66.278 110.333,67.333 109.812,67.333 109.417 C 67.333 109.358,67.446 109.197,67.583 109.060 C 67.721 108.922,67.833 108.658,67.833 108.472 C 67.833 108.276,67.972 108.099,68.167 108.048 C 68.350 108.000,68.500 107.895,68.500 107.814 C 68.500 107.733,68.837 107.667,69.250 107.667 C 69.662 107.667,70.000 107.592,70.000 107.500 C 70.000 107.408,70.296 107.333,70.657 107.333 C 71.018 107.333,71.360 107.258,71.417 107.167 C 71.473 107.075,71.773 107.000,72.083 107.000 C 72.393 107.000,72.693 106.925,72.750 106.833 C 72.807 106.742,72.993 106.667,73.165 106.667 C 73.336 106.667,73.589 106.554,73.726 106.417 C 73.864 106.279,74.207 106.167,74.488 106.167 C 74.770 106.167,75.000 106.092,75.000 106.000 C 75.000 105.908,75.183 105.833,75.407 105.833 C 75.631 105.833,75.860 105.758,75.917 105.667 C 75.973 105.575,76.168 105.500,76.348 105.500 C 76.529 105.500,76.720 105.387,76.773 105.250 C 76.828 105.107,77.076 105.000,77.351 105.000 C 77.616 105.000,77.833 104.925,77.833 104.833 C 77.833 104.742,78.021 104.667,78.250 104.667 C 78.479 104.667,78.667 104.592,78.667 104.500 C 78.667 104.408,78.854 104.333,79.083 104.333 C 79.313 104.333,79.500 104.258,79.500 104.167 C 79.500 104.075,79.652 104.000,79.839 104.000 C 80.025 104.000,80.220 103.888,80.273 103.750 C 80.326 103.612,80.511 103.500,80.684 103.500 C 80.858 103.500,81.000 103.425,81.000 103.333 C 81.000 103.242,81.110 103.167,81.244 103.167 C 81.378 103.167,81.828 102.977,82.244 102.745 L 83.000 102.323 83.005 104.453 C 83.011 106.778,83.062 106.930,83.984 107.386 C 84.625 107.703,85.098 107.746,85.250 107.500 C 85.307 107.408,85.480 107.331,85.635 107.328 C 85.968 107.321,86.500 106.881,86.792 106.370 C 86.939 106.112,87.000 105.050,87.000 102.763 C 87.000 99.736,87.021 99.516,87.314 99.423 C 87.487 99.368,87.861 99.100,88.146 98.828 C 88.431 98.556,88.730 98.333,88.811 98.333 C 88.893 98.333,89.053 98.221,89.167 98.083 C 89.576 97.590,89.643 97.868,89.696 100.278 C 89.735 102.046,89.808 102.742,89.958 102.792 C 90.073 102.830,90.167 102.967,90.167 103.095 C 90.167 103.925,91.836 104.344,92.583 103.703 C 93.480 102.933,93.500 102.816,93.500 98.332 L 93.500 94.152 93.909 93.742 C 94.442 93.210,94.752 93.226,95.346 93.821 L 95.833 94.308 95.833 101.808 L 95.833 109.308 96.346 109.821 C 97.027 110.501,98.322 110.558,99.042 109.939 L 99.500 109.545 99.500 98.098 L 99.500 86.652 99.917 86.203 C 100.146 85.956,100.333 85.659,100.333 85.543 C 100.333 85.428,100.394 85.333,100.469 85.333 C 100.543 85.333,100.707 85.071,100.833 84.750 C 100.959 84.429,101.123 84.167,101.198 84.167 C 101.272 84.167,101.333 84.017,101.333 83.833 C 101.333 83.650,101.407 83.500,101.497 83.500 C 101.587 83.500,101.707 83.313,101.765 83.083 C 101.822 82.854,101.936 82.667,102.018 82.667 C 102.100 82.667,102.167 82.517,102.167 82.333 C 102.167 82.150,102.242 82.000,102.333 82.000 C 102.425 82.000,102.500 81.856,102.500 81.681 C 102.500 81.505,102.556 81.336,102.625 81.306 C 102.745 81.252,103.048 80.653,103.496 79.583 C 103.611 79.308,103.772 78.953,103.853 78.794 C 103.934 78.635,104.000 78.354,104.000 78.169 C 104.000 77.984,104.061 77.833,104.135 77.833 C 104.303 77.833,104.833 76.652,104.833 76.277 C 104.833 76.125,104.908 76.000,105.000 76.000 C 105.092 76.000,105.167 75.737,105.167 75.417 C 105.167 75.096,105.242 74.833,105.333 74.833 C 105.425 74.833,105.500 74.603,105.500 74.321 C 105.500 74.040,105.612 73.697,105.750 73.560 C 105.888 73.422,106.000 73.094,106.000 72.831 C 106.000 72.568,106.075 72.307,106.167 72.250 C 106.258 72.193,106.333 71.893,106.333 71.583 C 106.333 71.273,106.408 70.973,106.500 70.917 C 106.592 70.860,106.667 70.443,106.667 69.990 C 106.667 69.537,106.742 69.167,106.833 69.167 C 106.925 69.167,107.000 68.786,107.000 68.321 C 107.000 67.792,107.094 67.383,107.250 67.226 C 107.622 66.855,107.627 50.565,107.255 50.074 C 107.121 49.896,107.008 49.394,107.005 48.958 C 107.002 48.523,106.925 48.167,106.833 48.167 C 106.742 48.167,106.667 47.796,106.667 47.343 C 106.667 46.890,106.592 46.473,106.500 46.417 C 106.408 46.360,106.333 46.060,106.333 45.750 C 106.333 45.440,106.258 45.140,106.167 45.083 C 106.075 45.027,106.000 44.765,106.000 44.502 C 106.000 44.239,105.888 43.911,105.750 43.774 C 105.612 43.636,105.500 43.293,105.500 43.012 C 105.500 42.730,105.425 42.500,105.333 42.500 C 105.242 42.500,105.167 42.237,105.167 41.917 C 105.167 41.596,105.092 41.333,105.000 41.333 C 104.908 41.333,104.833 41.223,104.833 41.089 C 104.833 40.788,104.296 39.604,104.125 39.528 C 104.056 39.497,104.000 39.327,104.000 39.151 C 104.000 38.974,103.925 38.680,103.833 38.498 C 103.742 38.316,103.592 38.018,103.500 37.836 C 103.408 37.654,103.333 37.427,103.333 37.332 C 103.333 37.238,103.146 36.863,102.917 36.500 C 102.688 36.137,102.500 35.726,102.500 35.587 C 102.500 35.447,102.425 35.333,102.333 35.333 C 102.242 35.333,102.167 35.183,102.167 35.000 C 102.167 34.817,102.092 34.667,102.000 34.667 C 101.908 34.667,101.833 34.560,101.833 34.429 C 101.833 34.298,101.739 34.091,101.624 33.970 C 101.509 33.849,101.228 33.375,101.000 32.917 C 100.772 32.458,100.510 31.992,100.418 31.881 C 100.325 31.769,100.156 31.566,100.042 31.429 C 99.927 31.293,99.833 31.103,99.833 31.007 C 99.833 30.911,99.758 30.833,99.667 30.833 C 99.575 30.833,99.500 30.734,99.500 30.613 C 99.500 30.492,99.237 30.087,98.917 29.712 C 98.596 29.337,98.333 28.960,98.333 28.873 C 98.333 28.787,98.126 28.499,97.873 28.233 C 97.619 27.967,97.190 27.450,96.919 27.083 C 96.648 26.717,96.181 26.169,95.880 25.867 C 95.579 25.565,95.333 25.264,95.333 25.198 C 95.333 25.036,91.279 21.000,91.116 21.000 C 91.046 21.000,90.660 20.663,90.259 20.250 C 89.858 19.837,89.482 19.500,89.424 19.500 C 89.308 19.500,89.024 19.277,88.416 18.708 C 88.196 18.502,87.937 18.333,87.841 18.333 C 87.745 18.333,87.667 18.258,87.667 18.167 C 87.667 18.075,87.535 18.000,87.373 18.000 C 87.212 18.000,86.989 17.855,86.878 17.677 C 86.767 17.499,86.412 17.228,86.088 17.075 C 85.765 16.921,85.500 16.729,85.500 16.648 C 85.500 16.566,85.420 16.500,85.322 16.500 C 85.224 16.500,84.899 16.313,84.598 16.083 C 84.298 15.854,83.965 15.667,83.859 15.667 C 83.753 15.667,83.667 15.610,83.667 15.541 C 83.667 15.471,83.423 15.307,83.125 15.176 C 82.827 15.045,82.484 14.839,82.363 14.719 C 82.242 14.598,82.036 14.500,81.905 14.500 C 81.774 14.500,81.667 14.425,81.667 14.333 C 81.667 14.242,81.517 14.167,81.333 14.167 C 81.150 14.167,81.000 14.092,81.000 14.000 C 81.000 13.908,80.813 13.833,80.583 13.833 C 80.354 13.833,80.167 13.758,80.167 13.667 C 80.167 13.575,80.017 13.500,79.833 13.500 C 79.650 13.500,79.500 13.426,79.500 13.337 C 79.500 13.247,79.313 13.126,79.083 13.068 C 78.854 13.011,78.667 12.897,78.667 12.815 C 78.667 12.734,78.479 12.667,78.250 12.667 C 78.021 12.667,77.833 12.592,77.833 12.500 C 77.833 12.408,77.608 12.333,77.333 12.333 C 77.058 12.333,76.833 12.269,76.833 12.189 C 76.833 12.110,76.477 11.918,76.042 11.763 C 75.606 11.607,75.120 11.410,74.961 11.323 C 74.801 11.237,74.483 11.167,74.252 11.167 C 74.022 11.167,73.833 11.092,73.833 11.000 C 73.833 10.908,73.577 10.833,73.264 10.833 C 72.951 10.833,72.668 10.754,72.636 10.658 C 72.573 10.469,71.632 10.184,70.624 10.049 C 70.280 10.003,69.956 9.898,69.906 9.816 C 69.855 9.734,69.481 9.667,69.073 9.667 C 68.666 9.667,68.333 9.592,68.333 9.500 C 68.333 9.408,67.915 9.333,67.405 9.333 C 66.802 9.333,66.389 9.246,66.226 9.083 C 66.056 8.913,65.636 8.833,64.915 8.833 C 64.331 8.833,63.807 8.758,63.750 8.667 C 63.687 8.565,62.387 8.500,60.407 8.500 L 57.167 8.500 57.167 58.570 M272.192 36.311 C 271.854 36.604,271.833 36.770,271.833 39.149 L 271.833 41.676 274.208 41.630 L 276.583 41.583 276.629 39.161 C 276.689 35.984,276.702 36.000,274.269 36.000 C 272.831 36.000,272.493 36.051,272.192 36.311 M302.595 36.262 C 302.366 36.491,302.333 37.366,302.333 43.345 C 302.333 47.097,302.303 50.167,302.265 50.167 C 302.228 50.167,301.664 49.642,301.012 49.000 C 300.360 48.358,299.723 47.833,299.598 47.833 C 299.472 47.833,299.332 47.737,299.287 47.619 C 299.173 47.322,296.778 46.167,296.276 46.167 C 296.135 46.167,295.973 46.092,295.917 46.000 C 295.744 45.721,291.045 45.795,290.167 46.090 C 288.792 46.552,287.243 47.291,286.977 47.611 C 286.876 47.733,286.684 47.833,286.551 47.833 C 286.259 47.833,283.500 50.633,283.500 50.929 C 283.500 51.045,283.444 51.164,283.375 51.194 C 283.210 51.268,282.739 52.070,282.315 53.000 C 282.127 53.413,281.904 53.880,281.820 54.039 C 281.736 54.199,281.667 54.465,281.667 54.631 C 281.667 54.797,281.600 55.005,281.518 55.092 C 280.651 56.012,280.658 63.262,281.526 64.242 C 281.604 64.329,281.667 64.536,281.667 64.702 C 281.667 64.869,281.733 65.135,281.814 65.294 C 281.895 65.453,282.177 66.020,282.439 66.555 C 282.702 67.089,283.048 67.667,283.208 67.839 C 283.369 68.012,283.500 68.217,283.500 68.297 C 283.500 68.498,285.563 70.666,285.758 70.670 C 285.845 70.671,286.076 70.841,286.272 71.047 C 286.467 71.254,286.842 71.534,287.105 71.669 C 287.368 71.805,287.621 71.954,287.667 72.000 C 287.712 72.046,288.050 72.223,288.417 72.393 C 288.783 72.564,289.214 72.770,289.373 72.852 C 289.532 72.933,289.846 73.000,290.071 73.000 C 290.296 73.000,290.527 73.075,290.583 73.167 C 290.646 73.268,291.860 73.333,293.667 73.333 C 295.474 73.333,296.688 73.268,296.750 73.167 C 296.807 73.075,297.075 73.000,297.345 73.000 C 297.616 73.000,297.968 72.933,298.127 72.852 C 298.286 72.770,298.698 72.566,299.042 72.397 C 299.385 72.229,299.667 72.033,299.667 71.962 C 299.667 71.891,299.798 71.833,299.958 71.833 C 300.119 71.833,300.450 71.664,300.695 71.458 C 300.940 71.252,301.347 70.933,301.600 70.750 C 301.853 70.567,302.234 70.245,302.447 70.034 L 302.833 69.652 302.833 70.631 C 302.833 71.667,303.704 73.000,304.381 73.000 C 304.527 73.000,304.693 73.075,304.750 73.167 C 304.916 73.434,307.590 73.377,307.819 73.101 C 308.178 72.668,307.984 69.434,307.595 69.359 C 306.803 69.207,306.833 69.870,306.833 52.530 C 306.833 37.795,306.808 36.192,306.570 36.101 C 305.962 35.868,302.864 35.993,302.595 36.262 M313.358 36.312 L 312.999 36.624 313.041 54.770 L 313.083 72.917 315.083 72.965 C 316.183 72.991,317.252 72.971,317.458 72.920 L 317.833 72.827 317.833 64.578 C 317.833 60.041,317.900 56.199,317.982 56.039 C 318.063 55.880,318.268 55.469,318.436 55.125 C 318.605 54.781,318.782 54.500,318.831 54.500 C 318.879 54.500,319.018 54.274,319.140 53.999 C 319.390 53.436,321.254 51.503,321.555 51.495 C 321.836 51.487,322.333 51.079,322.333 50.857 C 322.333 50.752,322.521 50.667,322.750 50.667 C 322.979 50.667,323.167 50.592,323.167 50.500 C 323.167 50.408,323.317 50.333,323.500 50.333 C 323.683 50.333,323.833 50.258,323.833 50.167 C 323.833 50.075,324.166 50.000,324.573 50.000 C 324.981 50.000,325.360 49.925,325.417 49.833 C 325.473 49.742,325.773 49.667,326.083 49.667 C 326.393 49.667,326.693 49.742,326.750 49.833 C 326.807 49.925,327.092 50.002,327.385 50.004 C 327.677 50.006,328.104 50.154,328.333 50.333 C 328.563 50.513,328.844 50.661,328.958 50.663 C 329.073 50.665,329.167 50.761,329.167 50.877 C 329.167 50.993,329.354 51.228,329.583 51.400 C 329.813 51.573,330.000 51.815,330.000 51.940 C 330.000 52.065,330.075 52.167,330.167 52.167 C 330.258 52.167,330.333 52.280,330.333 52.419 C 330.333 52.673,330.382 52.794,330.888 53.805 C 331.045 54.117,331.167 54.752,331.167 55.254 C 331.167 55.745,331.242 56.193,331.333 56.250 C 331.441 56.316,331.500 59.309,331.500 64.681 L 331.500 73.010 333.708 72.963 L 335.917 72.917 335.965 64.000 C 336.014 54.998,335.879 52.587,335.306 52.233 C 335.229 52.186,335.167 51.966,335.167 51.745 C 335.167 51.299,334.374 49.448,334.145 49.361 C 334.065 49.331,334.000 49.231,334.000 49.141 C 334.000 49.050,333.889 48.865,333.754 48.730 C 333.618 48.594,333.412 48.355,333.295 48.198 C 332.894 47.657,331.606 46.667,331.303 46.667 C 331.137 46.667,331.000 46.592,331.000 46.500 C 331.000 46.408,330.869 46.333,330.708 46.332 C 330.548 46.332,330.202 46.219,329.939 46.082 C 328.877 45.528,323.167 45.909,323.167 46.534 C 323.167 46.607,323.019 46.667,322.839 46.667 C 322.485 46.667,320.952 47.461,320.861 47.692 C 320.831 47.770,320.699 47.833,320.569 47.833 C 320.439 47.833,319.770 48.394,319.083 49.079 L 317.833 50.324 317.833 43.473 C 317.833 35.279,318.066 36.000,315.417 36.000 C 313.996 36.000,313.659 36.051,313.358 36.312 M341.929 36.262 C 341.713 36.477,341.667 36.980,341.667 39.100 L 341.667 41.676 343.958 41.630 L 346.250 41.583 346.296 39.129 C 346.356 35.954,346.391 36.000,343.929 36.000 C 342.571 36.000,342.133 36.057,341.929 36.262 M376.506 36.322 C 376.390 36.539,376.333 42.611,376.333 54.822 L 376.333 73.000 378.417 73.000 L 380.500 73.000 380.500 65.026 C 380.500 56.715,380.486 56.911,381.177 55.627 C 381.263 55.468,381.333 55.224,381.333 55.086 C 381.333 54.947,381.408 54.833,381.500 54.833 C 381.592 54.833,381.667 54.719,381.667 54.579 C 381.667 54.439,381.910 54.047,382.208 53.709 C 383.201 52.581,383.947 51.833,384.079 51.833 C 384.152 51.833,384.333 51.702,384.483 51.542 C 384.806 51.195,385.209 50.938,386.000 50.574 C 386.321 50.426,386.714 50.237,386.873 50.153 C 387.032 50.069,387.421 50.000,387.738 50.000 C 388.055 50.000,388.360 49.925,388.417 49.833 C 388.473 49.742,388.773 49.667,389.083 49.667 C 389.393 49.667,389.693 49.742,389.750 49.833 C 389.807 49.925,390.149 50.000,390.510 50.000 C 390.871 50.000,391.167 50.075,391.167 50.167 C 391.167 50.258,391.264 50.333,391.382 50.333 C 391.755 50.333,392.928 51.712,393.368 52.667 C 394.192 54.455,394.202 54.587,394.274 63.667 C 394.311 68.387,394.379 72.421,394.425 72.630 C 394.508 73.005,394.537 73.009,396.713 72.963 L 398.917 72.917 398.960 64.927 C 398.988 59.712,398.945 56.878,398.835 56.768 C 398.742 56.676,398.667 55.832,398.667 54.893 C 398.667 53.935,398.594 53.141,398.500 53.083 C 398.408 53.027,398.333 52.689,398.333 52.333 C 398.333 51.977,398.258 51.640,398.167 51.583 C 398.075 51.527,398.000 51.340,398.000 51.169 C 398.000 50.997,397.887 50.745,397.750 50.607 C 397.613 50.470,397.500 50.288,397.500 50.204 C 397.500 49.381,395.458 47.220,394.083 46.589 C 393.533 46.336,392.953 46.063,392.794 45.982 C 392.390 45.775,387.712 45.791,387.583 46.000 C 387.527 46.092,387.354 46.167,387.198 46.168 C 387.043 46.168,386.729 46.264,386.500 46.381 C 386.271 46.498,385.765 46.697,385.375 46.824 C 384.985 46.950,384.667 47.116,384.667 47.193 C 384.667 47.270,384.558 47.333,384.425 47.333 C 384.292 47.333,384.123 47.427,384.050 47.542 C 383.977 47.657,383.699 47.863,383.433 48.000 C 382.913 48.268,381.000 50.123,381.000 50.358 C 381.000 50.436,380.887 50.500,380.750 50.500 C 380.532 50.500,380.500 49.595,380.500 43.351 C 380.500 36.986,380.471 36.191,380.236 36.101 C 379.521 35.827,376.681 35.995,376.506 36.322 M155.076 43.667 C 155.076 47.379,155.098 48.898,155.125 47.042 C 155.152 45.185,155.152 42.148,155.125 40.292 C 155.098 38.435,155.076 39.954,155.076 43.667 M254.637 46.146 C 254.208 46.295,253.802 46.473,253.734 46.542 C 253.667 46.610,253.476 46.667,253.311 46.667 C 253.037 46.667,251.528 47.417,251.333 47.651 C 251.287 47.706,251.044 47.857,250.792 47.987 C 250.540 48.117,250.333 48.285,250.333 48.361 C 250.333 48.438,250.234 48.500,250.113 48.500 C 249.862 48.500,248.599 49.672,248.047 50.417 L 247.677 50.917 247.672 48.804 C 247.665 46.134,247.691 46.167,245.597 46.167 C 243.252 46.167,243.491 44.580,243.541 59.848 L 243.583 72.917 245.792 72.963 L 248.000 73.010 248.000 64.848 C 248.000 59.587,248.059 56.650,248.167 56.583 C 248.258 56.527,248.333 56.297,248.333 56.073 C 248.333 55.850,248.408 55.667,248.500 55.667 C 248.592 55.667,248.667 55.479,248.667 55.250 C 248.667 55.021,248.732 54.833,248.811 54.833 C 248.891 54.833,249.146 54.546,249.379 54.194 C 249.994 53.265,251.707 51.584,252.312 51.316 C 252.599 51.189,252.833 50.991,252.833 50.876 C 252.833 50.761,253.021 50.667,253.250 50.667 C 253.479 50.667,253.667 50.592,253.667 50.500 C 253.667 50.408,253.850 50.333,254.073 50.333 C 254.297 50.333,254.527 50.258,254.583 50.167 C 254.640 50.075,255.019 50.000,255.427 50.000 C 255.834 50.000,256.167 49.925,256.167 49.833 C 256.167 49.609,257.087 49.622,257.822 49.856 C 259.706 50.457,260.486 51.286,261.092 53.333 C 261.241 53.837,261.432 54.400,261.517 54.583 C 261.603 54.770,261.688 58.881,261.710 63.917 L 261.750 72.917 263.934 72.963 C 265.649 72.999,266.160 72.959,266.312 72.775 C 266.765 72.229,266.333 53.028,265.864 52.871 C 265.752 52.834,265.667 52.490,265.667 52.079 C 265.667 51.680,265.592 51.307,265.500 51.250 C 265.408 51.193,265.333 51.015,265.333 50.855 C 265.333 50.502,264.574 48.893,264.231 48.518 C 263.391 47.601,262.740 47.007,262.356 46.810 C 262.114 46.686,261.879 46.542,261.833 46.492 C 261.218 45.811,256.284 45.574,254.637 46.146 M358.333 45.980 C 358.196 46.059,357.802 46.174,357.458 46.236 C 357.115 46.298,356.833 46.420,356.833 46.508 C 356.833 46.595,356.655 46.667,356.438 46.667 C 355.991 46.667,354.500 47.447,354.500 47.681 C 354.500 47.765,354.393 47.833,354.263 47.833 C 353.994 47.833,352.667 49.092,352.667 49.347 C 352.667 49.439,352.512 49.680,352.322 49.882 C 352.132 50.084,351.935 50.456,351.884 50.708 C 351.833 50.960,351.726 51.167,351.646 51.167 C 351.566 51.167,351.500 51.462,351.500 51.823 C 351.500 52.185,351.425 52.527,351.333 52.583 C 351.242 52.640,351.167 53.315,351.167 54.083 C 351.167 54.852,351.242 55.527,351.333 55.583 C 351.425 55.640,351.500 55.908,351.500 56.179 C 351.500 56.866,352.078 57.833,352.488 57.833 C 352.586 57.833,352.667 57.914,352.667 58.012 C 352.667 58.243,353.091 58.667,353.321 58.667 C 353.420 58.667,353.500 58.742,353.500 58.833 C 353.500 58.925,353.650 59.000,353.833 59.000 C 354.017 59.000,354.167 59.061,354.167 59.135 C 354.167 59.303,355.348 59.833,355.723 59.833 C 355.875 59.833,356.000 59.908,356.000 60.000 C 356.000 60.092,356.262 60.167,356.583 60.167 C 356.904 60.167,357.167 60.242,357.167 60.333 C 357.167 60.425,357.410 60.502,357.708 60.505 C 358.006 60.508,358.396 60.621,358.574 60.755 C 358.751 60.890,359.141 61.000,359.439 61.000 C 359.737 61.000,360.027 61.075,360.083 61.167 C 360.140 61.258,360.477 61.333,360.833 61.333 C 361.189 61.333,361.527 61.408,361.583 61.500 C 361.640 61.592,361.940 61.667,362.250 61.667 C 362.560 61.667,362.860 61.742,362.917 61.833 C 362.973 61.925,363.231 62.000,363.489 62.000 C 363.748 62.000,364.053 62.112,364.167 62.250 C 364.281 62.387,364.552 62.500,364.770 62.500 C 364.988 62.500,365.167 62.575,365.167 62.667 C 365.167 62.758,365.317 62.833,365.500 62.833 C 365.683 62.833,365.833 62.908,365.833 63.000 C 365.833 63.092,365.946 63.167,366.083 63.167 C 366.221 63.167,366.333 63.242,366.333 63.333 C 366.333 63.425,366.483 63.500,366.667 63.500 C 366.850 63.500,367.000 63.610,367.000 63.745 C 367.000 63.880,367.150 64.257,367.333 64.583 C 367.689 65.216,367.775 66.080,367.500 66.250 C 367.408 66.307,367.333 66.574,367.333 66.843 C 367.333 67.113,367.258 67.333,367.167 67.333 C 367.075 67.333,367.000 67.417,367.000 67.519 C 367.000 67.758,365.865 68.801,365.469 68.927 C 365.303 68.979,365.167 69.092,365.167 69.178 C 365.167 69.263,364.984 69.333,364.760 69.333 C 364.536 69.333,364.307 69.408,364.250 69.500 C 364.193 69.592,363.743 69.667,363.250 69.667 C 362.757 69.667,362.307 69.742,362.250 69.833 C 362.193 69.925,361.781 70.000,361.333 70.000 C 360.886 70.000,360.473 69.925,360.417 69.833 C 360.360 69.742,359.835 69.667,359.250 69.667 C 358.665 69.667,358.140 69.592,358.083 69.500 C 358.027 69.408,357.760 69.333,357.490 69.333 C 357.221 69.333,357.000 69.273,357.000 69.199 C 357.000 69.125,356.681 68.933,356.292 68.772 C 355.219 68.330,354.421 67.885,353.937 67.460 C 353.756 67.301,353.471 67.127,353.304 67.074 C 353.137 67.021,353.000 66.908,353.000 66.822 C 353.000 66.737,352.865 66.667,352.700 66.667 C 352.535 66.667,352.309 66.575,352.197 66.463 C 351.990 66.256,351.167 66.935,351.167 67.312 C 351.167 67.400,351.107 67.497,351.035 67.528 C 350.078 67.931,349.750 70.000,350.643 70.000 C 350.748 70.000,350.833 70.062,350.833 70.139 C 350.833 70.215,351.040 70.383,351.292 70.514 C 351.544 70.644,351.825 70.834,351.917 70.936 C 352.074 71.112,353.123 71.690,353.667 71.901 C 353.804 71.954,354.029 72.062,354.167 72.140 C 354.892 72.551,355.200 72.667,355.571 72.667 C 355.796 72.667,356.027 72.742,356.083 72.833 C 356.140 72.925,356.477 73.000,356.833 73.000 C 357.189 73.000,357.527 73.075,357.583 73.167 C 357.647 73.270,359.085 73.333,361.343 73.333 C 363.670 73.333,365.000 73.273,365.000 73.167 C 365.000 73.075,365.296 73.000,365.657 73.000 C 366.018 73.000,366.360 72.925,366.417 72.833 C 366.473 72.742,366.703 72.667,366.927 72.667 C 367.150 72.667,367.333 72.592,367.333 72.500 C 367.333 72.408,367.448 72.333,367.589 72.333 C 367.729 72.333,367.887 72.221,367.940 72.083 C 367.992 71.946,368.177 71.833,368.350 71.833 C 368.917 71.833,370.790 69.808,371.336 68.604 C 372.163 66.780,372.058 63.558,371.123 62.094 C 370.427 61.005,368.411 59.500,367.648 59.500 C 367.475 59.500,367.333 59.431,367.333 59.347 C 367.333 59.262,367.109 59.144,366.835 59.084 C 366.561 59.024,366.294 58.905,366.242 58.821 C 366.190 58.736,365.931 58.667,365.667 58.667 C 365.402 58.667,365.140 58.592,365.083 58.500 C 365.027 58.408,364.727 58.333,364.417 58.333 C 364.107 58.333,363.807 58.258,363.750 58.167 C 363.693 58.075,363.404 58.000,363.107 58.000 C 362.810 58.000,362.492 57.926,362.401 57.835 C 362.232 57.666,361.072 57.373,359.957 57.218 C 359.613 57.171,359.290 57.064,359.239 56.982 C 359.188 56.900,358.926 56.833,358.657 56.833 C 358.387 56.833,358.167 56.758,358.167 56.667 C 358.167 56.575,358.016 56.500,357.832 56.500 C 357.381 56.500,356.174 55.607,355.893 55.066 C 355.129 53.593,356.147 50.923,357.752 50.189 C 358.026 50.064,358.380 49.895,358.539 49.814 C 358.699 49.733,359.170 49.667,359.586 49.667 C 360.106 49.667,360.374 49.588,360.440 49.417 C 360.553 49.121,361.772 49.065,361.867 49.351 C 361.901 49.453,362.413 49.599,363.006 49.677 C 364.545 49.879,365.158 50.017,365.262 50.186 C 365.312 50.267,365.536 50.333,365.760 50.333 C 365.984 50.333,366.167 50.408,366.167 50.500 C 366.167 50.592,366.354 50.667,366.583 50.667 C 366.843 50.667,367.000 50.761,367.000 50.917 C 367.000 51.054,367.060 51.167,367.134 51.167 C 367.208 51.167,367.555 51.429,367.905 51.750 C 368.970 52.726,369.340 52.596,370.798 50.736 C 371.359 50.020,370.345 48.192,369.375 48.171 C 369.260 48.169,369.167 48.092,369.167 48.000 C 369.167 47.908,369.054 47.833,368.917 47.833 C 368.779 47.833,368.667 47.772,368.667 47.696 C 368.667 47.530,366.837 46.667,366.484 46.667 C 366.346 46.667,366.162 46.596,366.075 46.510 C 365.575 46.014,359.049 45.567,358.333 45.980 M272.182 46.458 L 271.827 46.750 271.872 59.833 L 271.917 72.917 274.060 72.963 C 275.498 72.995,276.280 72.947,276.435 72.818 C 276.874 72.454,276.769 47.006,276.327 46.531 C 275.864 46.034,272.765 45.979,272.182 46.458 M341.958 46.339 C 341.684 46.506,341.667 47.326,341.667 59.758 L 341.667 73.000 343.909 73.000 L 346.152 73.000 346.249 72.458 C 346.401 71.620,346.268 46.546,346.112 46.389 C 345.900 46.176,342.297 46.133,341.958 46.339 M294.750 49.833 C 294.807 49.925,295.144 50.000,295.500 50.000 C 295.856 50.000,296.193 50.075,296.250 50.167 C 296.307 50.258,296.536 50.333,296.760 50.333 C 296.984 50.333,297.167 50.408,297.167 50.500 C 297.167 50.592,297.275 50.667,297.408 50.667 C 297.541 50.667,297.852 50.854,298.099 51.083 C 298.346 51.313,298.618 51.500,298.702 51.500 C 298.946 51.500,301.333 53.987,301.333 54.242 C 301.333 54.368,301.390 54.497,301.458 54.528 C 302.227 54.869,302.833 63.242,302.178 64.461 C 302.092 64.620,301.924 64.994,301.804 65.292 C 301.684 65.590,301.529 65.833,301.459 65.833 C 301.390 65.833,301.333 65.946,301.333 66.083 C 301.333 66.221,301.268 66.333,301.188 66.333 C 301.107 66.333,300.704 66.652,300.292 67.042 C 299.586 67.708,299.237 67.962,298.542 68.315 C 297.157 69.017,296.331 69.333,295.882 69.333 C 295.591 69.333,295.307 69.408,295.250 69.500 C 295.193 69.592,294.781 69.667,294.333 69.667 C 293.886 69.667,293.473 69.592,293.417 69.500 C 293.360 69.408,293.050 69.333,292.728 69.333 C 292.406 69.333,292.030 69.221,291.893 69.083 C 291.755 68.946,291.498 68.833,291.321 68.833 C 291.145 68.833,291.000 68.758,291.000 68.667 C 291.000 68.575,290.850 68.500,290.667 68.500 C 290.483 68.500,290.333 68.425,290.333 68.333 C 290.333 68.242,290.221 68.167,290.083 68.167 C 289.946 68.167,289.833 68.092,289.833 68.000 C 289.833 67.908,289.750 67.833,289.648 67.833 C 289.477 67.833,289.198 67.611,288.279 66.741 C 288.080 66.552,287.729 66.121,287.500 65.783 C 287.271 65.445,287.027 65.168,286.958 65.168 C 286.890 65.167,286.833 65.056,286.833 64.922 C 286.833 64.787,286.683 64.410,286.500 64.083 C 286.317 63.757,286.167 63.351,286.167 63.182 C 286.167 63.013,286.054 62.781,285.917 62.667 C 285.752 62.530,285.667 62.157,285.667 61.573 C 285.667 61.085,285.592 60.640,285.500 60.583 C 285.408 60.527,285.333 60.152,285.333 59.750 C 285.333 59.348,285.408 58.973,285.500 58.917 C 285.592 58.860,285.667 58.400,285.667 57.895 C 285.667 57.300,285.755 56.888,285.917 56.726 C 286.054 56.589,286.167 56.294,286.167 56.071 C 286.167 55.849,286.242 55.667,286.333 55.667 C 286.425 55.667,286.500 55.479,286.500 55.250 C 286.500 55.021,286.575 54.833,286.667 54.833 C 286.758 54.833,286.833 54.683,286.833 54.500 C 286.833 54.317,286.892 54.167,286.964 54.167 C 287.036 54.167,287.238 53.923,287.412 53.625 C 288.033 52.567,289.663 51.113,290.833 50.574 C 291.154 50.426,291.547 50.237,291.706 50.153 C 291.865 50.069,292.255 50.000,292.571 50.000 C 292.888 50.000,293.193 49.925,293.250 49.833 C 293.307 49.742,293.644 49.667,294.000 49.667 C 294.356 49.667,294.693 49.742,294.750 49.833 M155.072 60.167 C 155.072 62.321,155.095 63.202,155.124 62.125 C 155.153 61.048,155.153 59.285,155.124 58.208 C 155.095 57.131,155.072 58.012,155.072 60.167 M220.611 72.444 C 220.550 72.506,220.500 73.331,220.500 74.278 L 220.500 76.000 230.417 76.000 L 240.333 76.000 240.333 74.167 L 240.333 72.333 230.528 72.333 C 225.135 72.333,220.672 72.383,220.611 72.444 M90.375 104.583 C 90.260 104.713,90.167 104.865,90.167 104.922 C 90.167 104.978,90.054 105.136,89.917 105.274 C 89.779 105.411,89.667 105.738,89.667 106.000 C 89.667 106.262,89.779 106.589,89.917 106.726 C 90.054 106.864,90.167 107.024,90.167 107.083 C 90.167 107.623,92.266 107.931,92.727 107.458 C 94.127 106.023,93.518 104.328,91.605 104.340 C 90.938 104.344,90.511 104.428,90.375 104.583 M63.958 111.399 C 63.317 111.885,63.629 114.833,64.321 114.833 C 64.420 114.833,64.500 114.902,64.500 114.987 C 64.500 115.071,64.725 115.190,65.000 115.250 C 67.009 115.691,68.664 113.198,67.350 111.708 C 66.814 111.099,64.617 110.899,63.958 111.399 " stroke="none" fill="#040404" fill-rule="evenodd"></path><path id="path2" d="M177.294 49.618 C 177.501 49.658,177.801 49.656,177.960 49.615 C 178.120 49.573,177.950 49.540,177.583 49.542 C 177.217 49.544,177.086 49.578,177.294 49.618 M160.887 71.333 C 160.887 71.929,160.917 72.173,160.954 71.875 C 160.991 71.577,160.991 71.090,160.954 70.792 C 160.917 70.494,160.887 70.737,160.887 71.333 M203.458 72.955 C 203.848 72.990,204.485 72.990,204.875 72.955 C 205.265 72.920,204.946 72.892,204.167 72.892 C 203.387 72.892,203.069 72.920,203.458 72.955 M148.298 73.192 C 148.149 73.287,148.195 73.329,148.448 73.331 C 148.649 73.332,148.852 73.271,148.899 73.194 C 149.010 73.016,148.579 73.014,148.298 73.192 " stroke="none" fill="#882cb0" fill-rule="evenodd"></path><path id="path3" d="M191.048 59.583 C 191.049 60.042,191.081 60.209,191.120 59.956 C 191.158 59.703,191.157 59.328,191.117 59.123 C 191.078 58.918,191.046 59.125,191.048 59.583 " stroke="none" fill="#482c3c" fill-rule="evenodd"></path><path id="path4" d="" stroke="none" fill="#042c40" fill-rule="evenodd"></path></g></svg>